<?xml version="1.0" encoding="UTF-8"?>
<svg version="1.1" xmlns="http://www.w3.org/2000/svg" width="512" height="512">
<path d="M0 0 C0.9117211 -0.00384115 1.8234422 -0.00768229 2.76279122 -0.01163983 C3.75557908 -0.01077335 4.74836694 -0.00990687 5.77123928 -0.00901413 C7.36365803 -0.01347081 7.36365803 -0.01347081 8.98824686 -0.01801753 C12.55161537 -0.02670083 16.11495026 -0.02821249 19.67832851 -0.02970505 C22.23099241 -0.03433354 24.78365562 -0.03935824 27.33631802 -0.04475021 C34.27668923 -0.05787463 41.21704938 -0.06435636 48.15743089 -0.06876087 C52.4945467 -0.07152631 56.83166029 -0.07576428 61.1687746 -0.08026505 C73.18637515 -0.09245704 85.20397391 -0.10275573 97.22158051 -0.10614014 C98.37485879 -0.10646949 98.37485879 -0.10646949 99.55143562 -0.10680549 C100.32209103 -0.10702377 101.09274644 -0.10724204 101.88675505 -0.10746694 C103.44830167 -0.1079104 105.0098483 -0.10835696 106.57139492 -0.10880661 C107.34597014 -0.10902804 108.12054537 -0.10924947 108.91859256 -0.10947761 C121.45848939 -0.11342232 133.998328 -0.13086663 146.53820235 -0.15416613 C159.42508232 -0.17791622 172.31193312 -0.19034369 185.19883531 -0.19150805 C192.42928135 -0.19242289 199.65965156 -0.19812651 206.89007664 -0.21632767 C213.69528082 -0.23339841 220.50031697 -0.23495399 227.30554485 -0.22618866 C229.79836379 -0.22541932 232.29119051 -0.2297473 234.78398991 -0.23964691 C238.1975525 -0.25240412 241.61060924 -0.24646868 245.02416897 -0.23606491 C246.00134178 -0.24412132 246.97851459 -0.25217772 247.98529869 -0.26047826 C266.24777504 -0.13106958 281.81248204 7.8623982 294.70933437 20.44002151 C305.58712198 31.88550511 313.44081015 46.71197033 313.47916126 62.77482605 C313.48677308 64.47218844 313.48677308 64.47218844 313.49453866 66.20384097 C313.49503642 67.44223892 313.49553418 68.68063688 313.49604702 69.95656204 C313.50042927 71.27599406 313.50481153 72.59542609 313.50932658 73.9548409 C313.52126866 77.61623435 313.52693506 81.27761464 313.53150773 84.93902373 C313.53747307 88.88886357 313.54908082 92.83868774 313.55979824 96.788517 C313.5843048 106.32904835 313.59894884 115.86958488 313.61185831 125.41013801 C313.61557216 128.10693099 313.61954525 130.80372346 313.62361097 133.50051594 C313.64885445 150.26216938 313.6708986 167.02382369 313.68333912 183.78549194 C313.68626863 187.6669172 313.68923031 191.54834242 313.69224453 195.42976761 C313.69299058 196.39443062 313.69373663 197.35909364 313.69450529 198.35298887 C313.70714429 213.96113692 313.74034839 229.56917068 313.78204636 245.17726538 C313.82454718 261.21803253 313.84804372 277.25874132 313.85325968 293.2995646 C313.85666506 302.29917715 313.86831645 311.29861125 313.90136242 320.29816818 C313.92947657 327.96705213 313.94031284 335.63572103 313.92916696 343.30465248 C313.92400876 347.21167931 313.92667967 351.11825665 313.9516325 355.02521706 C314.10409582 380.2974057 312.03011307 400.59888558 293.80699062 419.78767776 C282.21561818 430.80958501 269.31363945 437.43482233 253.34214687 439.13142776 C253.43495937 440.86392776 253.43495937 440.86392776 253.52964687 442.63142776 C253.46960674 461.69417073 245.98375465 479.65061308 232.77964687 493.31892776 C220.22515169 505.76189824 203.98225611 512.28204137 186.42677212 512.27859879 C185.4203625 512.28227547 184.41395287 512.28595216 183.37704599 512.28974026 C180.00033617 512.30076449 176.62365714 512.30461887 173.24693203 512.30842972 C170.82721261 512.31469546 168.40749416 512.32134236 165.98777676 512.32834244 C158.72239254 512.34756046 151.45701088 512.35817071 144.19160897 512.36707023 C140.76463866 512.3714592 137.33766989 512.37682454 133.9107008 512.3820591 C122.50817657 512.39907076 111.10565329 512.41356189 99.70311832 512.42080784 C96.74604319 512.42271754 93.78896807 512.4246379 90.83189297 512.42659378 C90.09698267 512.42707752 89.36207237 512.42756126 88.60489206 512.42805966 C76.71688639 512.43634857 64.82898172 512.46166644 52.94102009 512.49417446 C40.71744322 512.52732574 28.49391753 512.54526399 16.2702955 512.54845208 C9.41475337 512.55061006 2.55935839 512.55925336 -4.29613972 512.58491325 C-10.75252662 512.60902424 -17.20872136 512.61239552 -23.66514683 512.60215187 C-26.02609353 512.60165826 -28.38705356 512.60792665 -30.74796009 512.62170792 C-53.42390586 512.74659363 -71.5835284 509.54886731 -88.55238438 493.27205276 C-89.24718906 492.56564651 -89.94199375 491.85924026 -90.65785313 491.13142776 C-91.21859531 490.56939651 -91.7793375 490.00736526 -92.35707188 489.42830276 C-102.1683653 478.81871512 -108.77079561 463.99047548 -108.78928089 449.47406292 C-108.79312204 448.3394045 -108.79696318 447.20474608 -108.80092072 446.03570408 C-108.80005424 444.79389552 -108.79918776 443.55208697 -108.79829502 442.27264786 C-108.80087984 440.93632391 -108.80389332 439.60000072 -108.80729842 438.26367861 C-108.81535823 434.59262734 -108.81715743 430.92159563 -108.81789589 427.25053656 C-108.81974826 423.29057074 -108.8272966 419.33061503 -108.83403111 415.37065506 C-108.8476085 406.71133207 -108.85363844 398.0520137 -108.85804176 389.39268184 C-108.86080563 383.98350409 -108.86504329 378.57432813 -108.86954594 373.1651516 C-108.88173866 358.18286978 -108.89203743 343.2005894 -108.89542103 328.21830273 C-108.89564059 327.25952342 -108.89586016 326.30074411 -108.89608638 325.31291089 C-108.89630466 324.3518588 -108.89652294 323.39080672 -108.89674783 322.40063184 C-108.89719129 320.45323114 -108.89763785 318.50583043 -108.8980875 316.55842972 C-108.89830893 315.59245515 -108.89853036 314.62648058 -108.8987585 313.63123406 C-108.90270448 297.98740988 -108.92015238 282.34363234 -108.94344702 266.69982617 C-108.9671812 250.63083174 -108.97962385 234.56186069 -108.98078895 218.49284846 C-108.98170463 209.47388549 -108.98742999 200.45498327 -109.00560856 191.43603706 C-109.02103756 183.75423444 -109.02611358 176.07251134 -109.01787046 168.39069616 C-109.01397362 164.47427452 -109.01484597 160.55801287 -109.0289278 156.6416111 C-109.04172524 153.04941867 -109.0404185 149.45750548 -109.02833709 145.86531312 C-109.02547465 143.96464925 -109.03727156 142.06398029 -109.04975915 140.16335529 C-108.95195173 123.05165994 -103.05950237 107.9241279 -91.65785313 95.13142776 C-91.07648594 94.45724808 -90.49511875 93.78306839 -89.89613438 93.08845901 C-80.06058628 82.42812702 -65.9376901 75.45437484 -51.65785313 73.13142776 C-49.12136494 73.03378105 -46.61226321 72.98358969 -44.07605076 72.98425674 C-43.32070468 72.98058006 -42.56535861 72.97690337 -41.78712326 72.97311527 C-39.26022092 72.96211686 -36.73335976 72.95824111 -34.20643711 72.95442581 C-32.39267949 72.94815817 -30.57892314 72.9415111 -28.76516819 72.93451309 C-22.81143679 72.91350295 -16.85770524 72.90311233 -10.90394688 72.89314651 C-8.85092309 72.88909757 -6.79789943 72.88498061 -4.74487591 72.88079643 C4.9033523 72.86175005 14.5515729 72.84751886 24.19981629 72.83918446 C35.31966574 72.82941915 46.43931575 72.80311568 57.55909497 72.76268357 C66.16483397 72.73247169 74.77051597 72.71771071 83.37630695 72.71440345 C88.51088502 72.71205843 93.6452499 72.70316964 98.77977085 72.67794228 C103.61516833 72.65456822 108.45021366 72.6504657 113.28565311 72.66070366 C115.0528293 72.66119689 116.82002337 72.65493964 118.58714581 72.64114761 C136.16080472 72.51174893 151.05314662 76.46392939 164.01611233 89.0944252 C164.75880871 89.8425296 165.50150509 90.590634 166.26670742 91.36140823 C167.08451687 92.16563721 167.90232632 92.96986618 168.74491787 93.79846573 C171.41922079 96.43576147 174.07478 99.09098529 176.72886562 101.74861526 C178.59919475 103.60793913 180.47003802 105.46674594 182.34136868 107.3250618 C186.25328291 111.21424674 190.15362627 115.11477855 194.0484457 119.0210762 C198.51925736 123.50454177 203.01340086 127.96359394 207.5196597 132.4114064 C211.88975101 136.7269185 216.23690416 141.06486879 220.57598209 145.41155243 C222.40789559 147.24127605 224.24607415 149.06475146 226.09087086 150.88148499 C241.46965439 166.05297362 253.32747449 180.8023197 253.4974013 203.40048546 C253.49886846 204.56636722 253.49886846 204.56636722 253.50036526 205.75580215 C253.50530323 206.59891136 253.51024121 207.44202057 253.51532882 208.31067854 C253.53062695 211.12193877 253.5390435 213.93317629 253.54746914 216.74446487 C253.55705371 218.76517815 253.56706413 220.78588944 253.57746792 222.80659866 C253.60446028 228.28326951 253.62550049 233.75994892 253.6454699 239.23664927 C253.66736447 244.96351853 253.69473616 250.69036155 253.72152615 256.41720963 C253.77140613 267.25778973 253.81636236 278.09838443 253.85954851 288.93899304 C253.90896103 301.28234778 253.96386426 313.6256762 254.0192281 325.96900547 C254.13297607 351.35645499 254.23983073 376.74392978 254.34214687 402.13142776 C255.95152053 401.35555373 257.5576813 400.57301299 259.16245937 399.78767776 C260.05722988 399.35261917 260.95200039 398.91756058 261.87388515 398.46931839 C264.97510612 396.78834006 267.06371673 394.81193382 269.34214687 392.13142776 C270.02277187 391.43017776 270.70339687 390.72892776 271.40464687 390.00642776 C277.06887982 381.60143694 277.92502679 372.89695289 277.85008144 362.99995804 C277.85632141 361.7201687 277.86256137 360.44037936 277.86899042 359.12180853 C277.88557095 355.59905996 277.87748951 352.07674907 277.86504555 348.55399966 C277.85595069 344.74342037 277.86998665 340.93291344 277.88096523 337.12234879 C277.89870797 329.66912802 277.89492948 322.2160688 277.88331467 314.76284182 C277.87426385 308.70292568 277.87306346 302.64305466 277.87740993 296.5831337 C277.87832933 295.28710111 277.87832933 295.28710111 277.87926731 293.96488604 C277.88054627 292.20938494 277.88184312 290.45388386 277.88315767 288.69838279 C277.89455103 272.25517233 277.88146932 255.81205122 277.8599562 239.36885542 C277.84208635 225.2742059 277.84519081 211.17968818 277.86363125 197.08504105 C277.88505997 180.69878614 277.89345251 164.31260945 277.88118219 147.92634249 C277.87990806 146.17746895 277.87865058 144.4285954 277.87740993 142.67972183 C277.87679283 141.81934802 277.87617573 140.9589742 277.87553993 140.07252845 C277.87209303 134.02318791 277.87790111 127.97389718 277.88732815 121.92456436 C277.89857179 114.54769743 277.89545855 107.17100065 277.87420517 99.79415309 C277.86372642 96.03372392 277.85951823 92.27357795 277.87280178 88.51315117 C277.88700848 84.42948905 277.86999234 80.34653576 277.85008144 76.26289749 C277.85900433 75.08457525 277.86792722 73.906253 277.87712049 72.69222403 C277.78347571 62.76824829 275.52144151 53.75723104 269.17808437 45.91658401 C261.15294816 38.11341965 251.99041322 35.82979964 241.17243862 35.8572731 C240.15080722 35.85203642 239.12917582 35.84679974 238.07658589 35.84140438 C234.65448714 35.82640712 231.23253795 35.82569927 227.81040859 35.82503128 C225.35611627 35.81740952 222.90182634 35.808982 220.44753933 35.7998085 C213.77993524 35.77785585 207.11239126 35.76904129 200.44475985 35.76398206 C196.27732242 35.76072063 192.10989419 35.7541954 187.94246197 35.74698067 C176.39234306 35.72741787 164.84223268 35.7110122 153.29209614 35.70810413 C152.55345518 35.70791656 151.81481423 35.70772899 151.05379022 35.70753574 C149.55653135 35.7071695 148.05927248 35.7068058 146.56201361 35.70644463 C145.44722743 35.70617041 145.44722743 35.70617041 144.30992031 35.70589066 C143.56581674 35.70571011 142.82171316 35.70552956 142.055061 35.70534354 C130.00663031 35.70180433 117.95837862 35.67479646 105.91000997 35.63739277 C93.5248166 35.59925282 81.13971191 35.57994623 68.75445855 35.57964462 C61.80678036 35.57906127 54.85931564 35.57064888 47.91169262 35.54164696 C41.37317977 35.51447742 34.83501472 35.51327651 28.29644108 35.5293026 C25.90198184 35.53111505 23.5074982 35.52444495 21.11309147 35.50848389 C0.72423131 35.29955812 0.72423131 35.29955812 -16.65785313 45.13142776 C-17.24147617 46.02885696 -17.82509922 46.92628616 -18.42640781 47.85091019 C-20.65785313 50.13142776 -20.65785313 50.13142776 -24.60023594 50.69905472 C-26.1873702 50.69826655 -27.77464746 50.67021435 -29.36097813 50.61970901 C-30.19876804 50.61263428 -31.03655796 50.60555954 -31.89973545 50.59827042 C-34.57002459 50.57032843 -37.23820021 50.50759389 -39.90785313 50.44392776 C-41.7203228 50.41884448 -43.53282541 50.39603136 -45.34535313 50.37556839 C-49.78366483 50.32050281 -54.22040093 50.23423443 -58.65785313 50.13142776 C-56.600962 34.25278956 -45.9891517 21.74626636 -33.65785313 12.13142776 C-23.78418356 5.361676 -12.17786542 0.01935067 0 0 Z M-65.65785313 119.13142776 C-72.65944834 128.94340806 -73.95606352 136.95406151 -73.92527866 148.78187943 C-73.92980978 150.05825106 -73.93434089 151.3346227 -73.93900931 152.64967227 C-73.95121293 156.18133886 -73.95098197 159.71291053 -73.94862056 163.24459338 C-73.94821172 167.0579554 -73.95925794 170.87128727 -73.96873569 174.68463516 C-73.98533235 182.15172592 -73.99084464 189.6187851 -73.99196045 197.08589277 C-73.99291159 203.15733736 -73.99702517 209.22877156 -74.0033617 215.30021286 C-74.02097072 232.5237852 -74.03020114 249.74733263 -74.02870075 266.97091404 C-74.02862084 267.89899587 -74.02854093 268.82707771 -74.0284586 269.78328323 C-74.02837683 270.71250173 -74.02829507 271.64172023 -74.02821083 272.59909686 C-74.0273981 287.65503701 -74.0465334 302.71087707 -74.07473533 317.76678827 C-74.10348182 333.23580988 -74.11727464 348.70478271 -74.11554778 364.1738317 C-74.11488447 372.85460751 -74.12035072 381.53527841 -74.14190388 390.21603012 C-74.16013895 397.60761652 -74.16444399 404.99905046 -74.15088503 412.39064965 C-74.14436697 416.15916366 -74.14419572 419.92738537 -74.16159153 423.69587135 C-74.18028857 427.78848124 -74.16773753 431.880418 -74.15232944 435.97304153 C-74.16261657 437.15409226 -74.1729037 438.33514298 -74.18350255 439.55198312 C-74.09607648 450.08281131 -71.5318522 458.94512887 -64.71644688 467.12361526 C-56.77718456 474.8670324 -47.78318878 477.43602917 -37.00618076 477.3988533 C-35.55737156 477.40564997 -35.55737156 477.40564997 -34.07929349 477.41258395 C-30.84599116 477.42523416 -27.61285714 477.42360715 -24.37953281 477.42195511 C-22.0599251 477.42794 -19.74031938 477.43474545 -17.42071629 477.44231033 C-11.12100363 477.45998238 -4.82134531 477.46466625 1.47838974 477.46594191 C5.41531915 477.46736348 9.35223475 477.47163321 13.28916073 477.47693634 C26.31805689 477.49448619 39.34691884 477.5037761 52.37582687 477.50227539 C53.07772516 477.50219548 53.77962346 477.50211557 54.5027914 477.50203323 C55.20555099 477.50195147 55.90831058 477.50186971 56.63236591 477.50178547 C68.01607207 477.50097294 79.3996458 477.52010348 90.78331366 477.54830997 C102.48370972 477.57707146 114.18404127 477.59084844 125.88447356 477.58912241 C132.44864406 477.5886128 139.01266471 477.59429587 145.57680416 477.61547852 C151.7525263 477.63486342 157.92795568 477.63498331 164.10368824 477.62044525 C166.36675285 477.61835634 168.62983579 477.6230629 170.892869 477.63516617 C173.98976801 477.65065265 177.08566184 477.64128738 180.18253994 477.62590408 C181.07147355 477.63619121 181.96040717 477.64647834 182.87627816 477.65707719 C192.53906763 477.55149745 201.38407189 473.88781942 208.34214687 467.13142776 C215.75834606 458.28172262 217.64965562 450.97959489 217.58938503 439.69151688 C217.59300666 438.13389564 217.59300666 438.13389564 217.59670144 436.54480731 C217.60232798 433.0724771 217.59368322 429.60033169 217.5850668 426.1280098 C217.5861399 423.63602015 217.588079 421.14403076 217.59081936 418.65204239 C217.59516192 412.59198688 217.59023311 406.53200349 217.58096906 400.47195883 C217.57057287 393.41744946 217.57065554 386.36295185 217.57114164 379.30843626 C217.57164182 366.72728646 217.56249052 354.14616213 217.54795742 341.56502151 C217.53385283 329.34854545 217.52678745 317.13209177 217.52744961 304.91560745 C217.52750954 303.78564933 217.52750954 303.78564933 217.52757069 302.63286377 C217.52763122 301.5048806 217.52763122 301.5048806 217.52769297 300.35410988 C217.52838195 286.45050758 217.52250009 272.54691481 217.51353976 258.64331559 C217.51051894 253.72146658 217.50945969 248.79961931 217.50900745 243.87776947 C217.50825598 237.26385288 217.50193257 230.64995694 217.49184132 224.03604698 C217.48890815 221.60150103 217.48769258 219.16695236 217.48826885 216.73240471 C217.48875573 213.42472311 217.48314178 210.11710904 217.47585964 206.8094368 C217.47740824 205.83271456 217.47895685 204.85599232 217.48055238 203.84967244 C217.47732793 202.9706992 217.47410348 202.09172596 217.47078133 201.18611717 C217.46972469 200.03954759 217.46972469 200.03954759 217.46864671 198.86981499 C217.53045301 197.10175969 217.53045301 197.10175969 216.34214687 196.13142776 C214.96334231 196.02485748 213.57926375 195.98524733 212.19639492 195.97371292 C211.31424816 195.96345078 210.4321014 195.95318863 209.52322292 195.94261551 C208.55983501 195.93531418 207.59644711 195.92801285 206.60386562 195.92049026 C204.56544665 195.89238414 202.52703532 195.86371952 200.48863125 195.83455276 C197.27436246 195.79356004 194.06023055 195.75668105 190.84580898 195.73006058 C171.60253438 195.55684572 155.35312443 194.55278545 140.67027187 180.65486526 C132.40697008 171.69833346 127.37830287 160.67933899 127.13682461 148.43294144 C127.11687939 147.53238525 127.09693417 146.63182907 127.07638454 145.70398331 C127.0513158 144.26621284 127.0513158 144.26621284 127.02574062 142.79939651 C127.00495953 141.80764923 126.98417843 140.81590195 126.9627676 139.79410172 C126.89754635 136.63577878 126.83851485 133.47737488 126.77964687 130.31892776 C126.73643557 128.17373721 126.69282045 126.02855474 126.6487875 123.88338089 C126.54189315 118.63281465 126.4400765 113.38216844 126.34214687 108.13142776 C103.9930611 108.01444633 81.64402606 107.92636709 59.29469585 107.87236691 C48.91669108 107.84662335 38.53887693 107.81154656 28.16099453 107.7542305 C19.11196502 107.70427753 10.06307362 107.6721088 1.01391006 107.66098529 C-3.77429989 107.65448664 -8.56211487 107.6392937 -13.35019779 107.60277748 C-17.86464816 107.56862977 -22.37854397 107.55841238 -26.89311123 107.56588936 C-28.54258528 107.56452315 -30.19207948 107.55470297 -31.84144115 107.53540039 C-44.39103152 107.39583878 -57.01333399 108.96140526 -65.65785313 119.13142776 Z " fill="#CFCFCF" transform="translate(153.65785312652588,-0.13142776489257813)"/>
<path d="M0 0 C1.15206644 -0.00573832 1.15206644 -0.00573832 2.32740694 -0.01159257 C4.88513599 -0.0218605 7.44263794 -0.01794231 10.00038147 -0.01396179 C11.84062913 -0.01831168 13.68087499 -0.02349575 15.52111816 -0.02944946 C20.50870551 -0.04282027 25.49621699 -0.04342031 30.48381877 -0.04088616 C34.6513176 -0.03981524 38.81880116 -0.04470287 42.98629671 -0.04949158 C52.81945381 -0.06057994 62.65257271 -0.06102782 72.48573303 -0.05497742 C82.62239846 -0.0489361 92.75892513 -0.06125423 102.89556688 -0.08254749 C111.60659797 -0.10017173 120.31758492 -0.10616358 129.02863318 -0.10290974 C134.22783626 -0.10109821 139.42694034 -0.10372026 144.62612724 -0.11762428 C149.5156797 -0.13021152 154.40501601 -0.12824999 159.2945652 -0.11521339 C161.08598784 -0.1128501 162.87742573 -0.11557343 164.66883087 -0.12383652 C167.12037151 -0.13432669 169.57118988 -0.12618556 172.02270508 -0.11352539 C172.72612579 -0.12089968 173.4295465 -0.12827396 174.15428299 -0.13587171 C180.1392013 -0.07115869 185.6747645 1.22439172 190.31703186 5.16304016 C190.85585999 5.83464172 191.39468811 6.50624329 191.94984436 7.19819641 C192.50414124 7.86721985 193.05843811 8.53624329 193.62953186 9.22554016 C197.57083945 14.77532733 197.80917793 19.55874065 197.07484436 26.26069641 C195.34965905 32.30401021 191.4786211 37.06524275 186.07484436 40.26069641 C181.05702229 41.95547607 176.48943984 42.54989056 171.23234558 42.52139282 C170.09358815 42.52713114 170.09358815 42.52713114 168.93182552 42.53298539 C166.40406866 42.54325187 163.87654165 42.5393354 161.34877014 42.53535461 C159.52984915 42.53970462 157.71093 42.54488873 155.89201355 42.55084229 C150.96220821 42.56421278 146.03247963 42.5648131 141.1026597 42.56227899 C136.9824763 42.56120791 132.86230834 42.56609617 128.74212825 42.57088441 C119.01920022 42.58197295 109.29631081 42.58242073 99.57337952 42.57637024 C89.553749 42.57033084 79.53425893 42.58264213 69.51465237 42.60394031 C60.90211854 42.62157221 52.28962934 42.62755514 43.67707813 42.62430257 C38.53764646 42.62249203 33.39831497 42.62510295 28.25889969 42.63901711 C23.42433532 42.65161657 18.58998943 42.64963127 13.75542831 42.63660622 C11.98538895 42.63424547 10.21533411 42.63695708 8.4453125 42.64522934 C-13.25436821 42.73929779 -13.25436821 42.73929779 -21.48374939 34.98725891 C-25.44933091 30.23715856 -26.51996743 24.56895257 -26.26890564 18.49116516 C-25.27189742 12.02194139 -21.83671813 7.68040434 -16.99937439 3.48725891 C-11.71209597 0.36069502 -6.0021423 -0.03214624 0 0 Z " fill="#CFCFCF" transform="translate(139.92515563964844,285.7393035888672)"/>
<path d="M0 0 C1.17756653 -0.00551503 1.17756653 -0.00551503 2.37892228 -0.01114148 C5.0181091 -0.02218329 7.65725655 -0.02602301 10.29646301 -0.02983093 C12.1853803 -0.03609524 14.07429636 -0.04274201 15.96321106 -0.04974365 C21.10183215 -0.06715697 26.24044393 -0.07770646 31.37908721 -0.08594918 C34.5894911 -0.09109897 37.79989211 -0.09717473 41.01029396 -0.10346031 C51.05470136 -0.1225139 61.0991014 -0.13674431 71.1435234 -0.14507228 C82.73829343 -0.1548443 94.33287253 -0.18116228 105.92757529 -0.22157317 C114.88904711 -0.25173464 123.8504642 -0.26654121 132.81198579 -0.26985329 C138.16443842 -0.27220385 143.51668713 -0.28116506 148.86908531 -0.30631447 C153.90635069 -0.32960045 158.94327794 -0.33382622 163.98058319 -0.32355309 C165.82684008 -0.32305774 167.67311364 -0.32937791 169.51931953 -0.34310913 C172.04567224 -0.36084373 174.57081353 -0.35371473 177.09716797 -0.34057617 C177.8227719 -0.35154542 178.54837583 -0.36251466 179.29596776 -0.37381631 C185.23816411 -0.29952828 190.46792676 1.47904293 194.89966077 5.55908412 C199.77125403 11.09966621 200.83295228 16.19163806 200.67854309 23.36201477 C200.04477289 29.01049164 197.68459572 33.22590233 193.49104309 37.02217102 C187.99063646 40.76244753 182.97817416 41.4426812 176.44725037 41.41459656 C175.66780984 41.41912767 174.88836932 41.42365878 174.08530939 41.4283272 C171.48302561 41.44095068 168.88095168 41.43935218 166.27864075 41.43769836 C164.40898368 41.44368485 162.53932909 41.45049068 160.66967773 41.45805359 C155.59733036 41.47570745 150.52505047 41.48040868 145.45267534 41.48168516 C142.28228461 41.48310754 139.11191099 41.48737877 135.94152451 41.4926796 C124.87729046 41.51117709 113.81310458 41.51935046 102.74885559 41.51777649 C92.44119854 41.51657482 82.1337508 41.53768288 71.82614672 41.56926382 C62.9707623 41.59542696 54.11544625 41.60614378 45.26002347 41.60486567 C39.97357852 41.6043561 34.68731964 41.61003706 29.40091324 41.63122177 C24.42843192 41.65060498 19.45631421 41.65072797 14.48381996 41.63618851 C12.66175492 41.6340995 10.83966711 41.6388068 9.01764107 41.65090942 C6.52427019 41.66639519 4.03214797 41.65703266 1.5388031 41.64164734 C0.82302743 41.65193447 0.10725175 41.66222159 -0.6302141 41.67282045 C-6.87778423 41.58801191 -11.96430506 39.45090534 -16.65739441 35.40107727 C-21.0365902 29.92075421 -23.1523651 25.68541112 -22.93864441 18.54951477 C-22.27534464 13.3196512 -20.52758919 8.96460079 -16.69255066 5.28388977 C-11.14494183 1.0031382 -6.96344345 -0.0017425 0 0 Z " fill="#CFCFCF" transform="translate(136.6339569091797,373.8528289794922)"/>
<path d="M0 0 C0.97135391 -0.00852997 1.94270782 -0.01705994 2.9434967 -0.02584839 C3.99763763 -0.02494202 5.05177856 -0.02403564 6.13786316 -0.02310181 C7.25715714 -0.02981903 8.37645111 -0.03653625 9.52966309 -0.04345703 C13.23008158 -0.06245562 16.93031885 -0.06636226 20.63078308 -0.06851196 C23.2052213 -0.07493878 25.77965878 -0.08166705 28.35409546 -0.08868408 C33.75176497 -0.10066166 39.14936268 -0.10445012 44.54704285 -0.10317993 C50.77225302 -0.10197938 56.997116 -0.12306713 63.22223836 -0.15466726 C69.2252988 -0.18404661 75.22817182 -0.19115398 81.23131371 -0.18996048 C83.77856043 -0.1923182 86.32580982 -0.20115128 88.87301064 -0.21662521 C92.43945076 -0.23626141 96.0050019 -0.23045532 99.57145691 -0.21841431 C100.61952515 -0.22965332 101.66759338 -0.24089233 102.74742126 -0.25247192 C109.65345156 -0.1933438 115.41553032 0.81039434 120.56983662 5.71474648 C125.76858002 11.67670033 126.55371526 16.22386 126.43156433 23.99789429 C125.7221488 30.056882 122.85864754 33.54802462 118.54875183 37.64242554 C114.47788064 40.28849181 111.00642786 41.51437834 106.14892578 41.5415802 C105.18887634 41.55155533 104.2288269 41.56153046 103.23968506 41.57180786 C101.67721291 41.57280487 101.67721291 41.57280487 100.08317566 41.57382202 C98.97684784 41.58214554 97.87052002 41.59046906 96.73066711 41.5990448 C93.07233663 41.62314391 89.41418454 41.63191774 85.75578308 41.63851929 C83.20855659 41.64748695 80.66133064 41.65660882 78.11410522 41.6658783 C72.77191051 41.68237152 67.42978244 41.69010169 62.08757019 41.69296265 C55.93276368 41.69659189 49.77845766 41.72644658 43.62380391 41.76836723 C37.68378552 41.80739301 31.74391567 41.81855821 25.80376244 41.8196888 C23.28606647 41.8238853 20.76836985 41.83629652 18.25075722 41.85720634 C14.72050105 41.88418806 11.19160874 41.87927319 7.66130066 41.86679077 C6.62977371 41.88162506 5.59824677 41.89645935 4.53546143 41.91174316 C-2.50313042 41.84119716 -8.14476263 40.38976316 -13.95124817 36.26742554 C-18.33893783 30.9595332 -20.3776675 25.70044386 -20.29890442 18.81430054 C-19.49832488 12.94938079 -16.59253615 7.90871352 -12.45124817 3.76742554 C-8.3064263 1.28053242 -4.84802495 0.01933436 0 0 Z " fill="#CFCFCF" transform="translate(133.9512481689453,198.73257446289063)"/>
</svg>
