<?xml version="1.0" encoding="UTF-8"?>
<svg version="1.1" xmlns="http://www.w3.org/2000/svg" width="512" height="512">
<path d="M0 0 C23.84694207 -0.69078044 46.9554333 6.68044957 65.2265625 22.16015625 C66.4640625 23.1965625 66.4640625 23.1965625 67.7265625 24.25390625 C85.90567611 39.99435828 97.4505323 62.26646776 100.2265625 86.16015625 C101.69984374 112.66494261 96.05705876 138.62918112 78.18139648 159.01538086 C75.93136947 161.47135459 73.59570882 163.81804726 71.2265625 166.16015625 C70.43636719 166.96066406 69.64617187 167.76117188 68.83203125 168.5859375 C50.89090849 185.81298572 26.50833055 193.75242136 1.93945312 193.57983398 C-15.8778911 193.05069017 -34.80911463 188.65537092 -48.78125 177.03125 C-51.86737802 175.68182539 -53.68108719 176.96997409 -56.7734375 178.16015625 C-59.29175387 179.35999872 -61.76857907 180.586207 -64.2421875 181.87109375 C-64.95040649 182.23498199 -65.65862549 182.59887024 -66.38830566 182.9737854 C-68.68577175 184.15627889 -70.97971779 185.34541422 -73.2734375 186.53515625 C-74.87496102 187.36205467 -76.47652381 188.18887704 -78.078125 189.015625 C-87.20793175 193.73849073 -96.27343414 198.55993887 -105.265625 203.54052734 C-114.59285057 208.67505298 -124.08404573 213.48824413 -133.56503296 218.33056641 C-143.87442858 223.59783577 -154.111905 228.95461856 -164.203125 234.6328125 C-168.32211541 236.93007057 -172.20398453 238.86511 -176.7734375 240.16015625 C-176.7734375 242.47015625 -176.7734375 244.78015625 -176.7734375 247.16015625 C-175.99742187 247.37027344 -175.22140625 247.58039063 -174.421875 247.796875 C-169.42583246 249.6637046 -165.00442892 252.30242609 -160.3984375 254.97265625 C-152.24550366 259.64339072 -144.05080421 264.21364815 -135.7734375 268.66015625 C-127.92761328 272.88121983 -120.13969595 277.18780833 -112.3984375 281.59765625 C-103.18107981 286.84660547 -93.87728536 291.91521715 -84.51147461 296.89428711 C-79.00829927 299.83171185 -73.56623854 302.83686626 -68.19140625 306.00390625 C-66.61842773 306.92429687 -66.61842773 306.92429687 -65.01367188 307.86328125 C-63.0226568 309.03521591 -61.04033734 310.2220891 -59.06835938 311.42578125 C-58.18083984 311.9465625 -57.29332031 312.46734375 -56.37890625 313.00390625 C-55.60699951 313.46990234 -54.83509277 313.93589844 -54.03979492 314.41601562 C-51.73134662 315.41106836 -51.73134662 315.41106836 -49.20629883 314.40771484 C-48.40345459 313.99602051 -47.60061035 313.58432617 -46.7734375 313.16015625 C-45.608125 312.56460937 -44.4428125 311.9690625 -43.2421875 311.35546875 C-42.2836084 310.85394287 -42.2836084 310.85394287 -41.30566406 310.34228516 C-33.66470388 306.36759059 -26.17993792 303.20527159 -17.7734375 301.16015625 C-16.40251953 300.82371094 -16.40251953 300.82371094 -15.00390625 300.48046875 C10.07321148 295.35982653 36.31365826 300.91415158 57.6875 314.67578125 C63.42993103 318.57901061 68.35727502 323.23465766 73.2265625 328.16015625 C74.42732422 329.34544922 74.42732422 329.34544922 75.65234375 330.5546875 C93.25719217 348.88927057 100.77612493 373.41879503 100.58032227 398.43652344 C99.9317884 423.66702942 89.04274952 446.71265584 71.8515625 464.91015625 C62.38304993 473.80748244 51.97927456 479.87206837 40.2265625 485.16015625 C39.30359375 485.58296875 38.380625 486.00578125 37.4296875 486.44140625 C14.64549189 495.78151128 -12.29699493 493.6633991 -34.66650391 484.37402344 C-58.52056706 473.83253483 -76.9229529 454.68823663 -86.6484375 430.53515625 C-91.28593275 417.51818681 -93.00443539 404.89169733 -92.7734375 391.16015625 C-93.48411377 390.89009766 -94.19479004 390.62003906 -94.92700195 390.34179688 C-97.83529843 389.13447592 -100.54629763 387.75037196 -103.31640625 386.25390625 C-104.91222534 385.39369873 -104.91222534 385.39369873 -106.5402832 384.51611328 C-107.66909912 383.90364746 -108.79791504 383.29118164 -109.9609375 382.66015625 C-111.14602394 382.01926949 -112.33116444 381.37848269 -113.51635742 380.73779297 C-121.32941561 376.50906868 -129.11104035 372.22655992 -136.8671875 367.89453125 C-143.09396669 364.41826347 -149.34089726 360.97846288 -155.5859375 357.53515625 C-156.82894621 356.84962281 -158.07194748 356.16407587 -159.31494141 355.47851562 C-163.13428358 353.37211193 -166.95384203 351.2661006 -170.7734375 349.16015625 C-172.05696838 348.45247801 -173.34049703 347.74479572 -174.62402344 347.03710938 C-175.2572049 346.68801514 -175.89038635 346.3389209 -176.54275513 345.97924805 C-177.81245138 345.27907848 -179.08204433 344.57872155 -180.35153198 343.87817383 C-183.43852961 342.17479595 -186.52688412 340.47400237 -189.61865234 338.77929688 C-194.91360733 335.87302097 -200.18578224 332.94230498 -205.3828125 329.86328125 C-206.62575073 329.1369751 -206.62575073 329.1369751 -207.89379883 328.39599609 C-209.38043844 327.52290272 -210.85789376 326.63386538 -212.32299805 325.72509766 C-215.44714925 323.90303531 -217.20336117 323.06307539 -220.82421875 323.6796875 C-223.501712 325.02375365 -226.1315853 326.41918991 -228.72045898 327.92749023 C-249.96163603 340.24075752 -275.20434351 342.03076167 -298.7734375 336.16015625 C-313.84648294 331.90423754 -327.21665805 324.71752867 -338.7734375 314.16015625 C-339.94132812 313.11408203 -339.94132812 313.11408203 -341.1328125 312.046875 C-358.45623948 295.70909128 -369.09021586 272.0265882 -369.99609375 248.30078125 C-370.67645198 219.61761669 -361.98116723 196.11676595 -342.62109375 174.7890625 C-325.16410211 156.59574784 -300.82328898 146.79987151 -275.8293457 145.82592773 C-256.55958296 145.45505642 -236.76781518 150.47269225 -221.140625 161.9375 C-218.11510826 163.50018439 -217.01253977 163.040915 -213.7734375 162.16015625 C-211.4018162 161.15025677 -211.4018162 161.15025677 -209.02734375 159.859375 C-208.12032715 159.38363037 -207.21331055 158.90788574 -206.27880859 158.41772461 C-205.30766113 157.89960205 -204.33651367 157.38147949 -203.3359375 156.84765625 C-202.30807129 156.30568604 -201.28020508 155.76371582 -200.22119141 155.20532227 C-192.78026814 151.26819007 -185.40356832 147.21898921 -178.03149414 143.1550293 C-168.06953681 137.70582038 -157.94452516 132.57620158 -147.8321228 127.41387939 C-132.22822678 119.44783075 -132.22822678 119.44783075 -116.8815918 110.99926758 C-112.98276163 108.78999498 -109.2547857 106.89244784 -105 105.46484375 C-98.74049772 103.33878043 -98.74049772 103.33878043 -93.7734375 99.16015625 C-91.36343309 92.75454742 -91.390734 85.74660342 -91.01611328 78.98486328 C-89.24054468 58.31753054 -75.44456646 37.79598871 -60.57421875 24.140625 C-43.19151723 9.57363381 -22.66230239 1.30866817 0 0 Z M-52.1484375 47.59765625 C-66.4412144 64.77907859 -71.8663706 84.62610706 -70.41796875 106.72265625 C-70.9174642 110.14776794 -72.45146157 111.6208753 -74.7734375 114.16015625 C-77.40454102 115.85424805 -77.40454102 115.85424805 -80.40234375 117.359375 C-82.06317993 118.20520142 -82.06317993 118.20520142 -83.75756836 119.06811523 C-85.52886108 119.94898804 -85.52886108 119.94898804 -87.3359375 120.84765625 C-88.57039742 121.47274869 -89.8041975 122.09914583 -91.03735352 122.72680664 C-93.49291933 123.97560339 -95.95088957 125.21942926 -98.41113281 126.45898438 C-102.70066951 128.6292931 -106.96085179 130.85131175 -111.2109375 133.09765625 C-111.94803955 133.48574463 -112.6851416 133.87383301 -113.44458008 134.27368164 C-117.99925123 136.67693396 -122.53934584 139.1064784 -127.07421875 141.546875 C-141.56100652 149.34172281 -156.11390431 156.98815307 -170.743927 164.51086426 C-171.37370453 164.83470093 -172.00348206 165.1585376 -172.65234375 165.4921875 C-173.27092255 165.81022339 -173.88950134 166.12825928 -174.52682495 166.45593262 C-179.78985719 169.16395014 -185.03693893 171.90123468 -190.2734375 174.66015625 C-191.38187012 175.24265137 -191.38187012 175.24265137 -192.51269531 175.83691406 C-196.04049622 177.69626888 -199.55125033 179.58148515 -203.04296875 181.5078125 C-203.72617188 181.88164062 -204.409375 182.25546875 -205.11328125 182.640625 C-206.93754784 183.64126232 -208.75614717 184.65221303 -210.57421875 185.6640625 C-215.07939769 187.77088 -218.22970658 188.63515038 -223.0234375 187.16015625 C-226.07460771 185.69799809 -228.72114391 183.82469131 -231.4609375 181.84765625 C-246.9571674 170.74202482 -264.57744306 166.15194471 -283.52734375 168.65625 C-304.51638514 172.46656828 -321.79723753 183.17618825 -334.7734375 200.16015625 C-346.10601671 217.68144893 -350.15761809 236.96807162 -346.7734375 257.53515625 C-343.87631576 270.49739578 -337.85180278 282.44319874 -328.7734375 292.16015625 C-328.07476562 292.93746094 -327.37609375 293.71476562 -326.65625 294.515625 C-314.03562778 307.92222903 -296.14482562 316.09468031 -277.7734375 317.16015625 C-277.02964844 317.21300781 -276.28585937 317.26585937 -275.51953125 317.3203125 C-257.80633162 317.9914881 -241.67788406 310.91908938 -227.5234375 300.84765625 C-224.38609468 298.92246861 -222.45527963 298.23529589 -218.7734375 298.16015625 C-213.29229931 300.27353043 -208.1439649 302.96974267 -202.9609375 305.72265625 C-202.12546387 306.16464355 -201.28999023 306.60663086 -200.42919922 307.06201172 C-193.54661105 310.71810278 -186.72776658 314.48179465 -179.92578125 318.28515625 C-173.61841789 321.81093333 -167.28895286 325.29664296 -160.9609375 328.78515625 C-159.71043742 329.47475074 -158.45994923 330.16436679 -157.20947266 330.85400391 C-154.66493787 332.25727315 -152.12033338 333.66041588 -149.57568359 335.06347656 C-145.87696674 337.10295043 -142.17864547 339.14314065 -138.48046875 341.18359375 C-137.88437805 341.51247589 -137.28828735 341.84135803 -136.6741333 342.1802063 C-133.6773515 343.83366435 -130.68065934 345.48728465 -127.68408203 347.14111328 C-122.10836798 350.21816827 -116.53193963 353.29390241 -110.95266724 356.36450195 C-108.36754841 357.78735962 -105.78288052 359.21103536 -103.19824219 360.63476562 C-101.41254366 361.61797666 -99.62620784 362.60002998 -97.83984375 363.58203125 C-95.61379507 364.80841918 -93.38994276 366.03880345 -91.16845703 367.2734375 C-89.40584277 368.25297748 -87.64269242 369.23161606 -85.87322998 370.19873047 C-83.94867042 371.25071149 -82.03064357 372.31387618 -80.11328125 373.37890625 C-78.97109131 374.00732422 -77.82890137 374.63574219 -76.65209961 375.28320312 C-73.90739569 377.07281246 -72.37514398 378.33145445 -70.7734375 381.16015625 C-70.55078125 384.5234375 -70.55078125 384.5234375 -70.7109375 388.47265625 C-71.19444444 411.11991429 -64.92248988 430.16638532 -49.7734375 447.16015625 C-35.82804297 461.58276961 -17.66914837 469.00342887 2.2265625 470.16015625 C21.89499211 470.1390074 39.70980237 463.47372545 54.2265625 450.16015625 C54.93167969 449.53496094 55.63679688 448.90976562 56.36328125 448.265625 C69.5258168 435.95552032 77.37362895 417.59441636 78.4296875 399.72265625 C78.68696337 380.16969002 73.52627894 363.50256984 61.2265625 348.16015625 C60.4428125 347.10828125 59.6590625 346.05640625 58.8515625 344.97265625 C45.4924717 330.65934468 27.26102079 322.09805482 7.75390625 320.95703125 C-10.92447959 320.71313503 -26.96195925 325.72983152 -41.54296875 337.40234375 C-45.81813962 339.72861568 -49.00747933 339.98317103 -53.7734375 339.16015625 C-56.84938508 338.08510887 -59.57868045 336.5944373 -62.3984375 334.97265625 C-63.61551392 334.30314941 -63.61551392 334.30314941 -64.85717773 333.62011719 C-67.50808669 332.15411655 -70.14151971 330.65995358 -72.7734375 329.16015625 C-74.58437161 328.13755351 -76.39557305 327.11542407 -78.20703125 326.09375 C-81.05081907 324.48711694 -83.89289259 322.87771135 -86.73095703 321.26098633 C-94.02042905 317.11598062 -101.37868038 313.11382134 -108.7734375 309.16015625 C-117.95385969 304.25037564 -127.04555017 299.21031117 -136.08984375 294.0546875 C-143.26084284 289.98092873 -150.50156424 286.05056276 -157.7734375 282.16015625 C-166.4089282 277.52866917 -175.02606926 272.86774278 -183.5859375 268.09765625 C-184.54048828 267.57365234 -185.49503906 267.04964844 -186.47851562 266.50976562 C-196.33668307 260.97573263 -196.33668307 260.97573263 -198.7734375 257.16015625 C-199.46869202 252.64430152 -199.42482635 248.21991413 -199.3359375 243.66015625 C-199.34689453 242.43683594 -199.35785156 241.21351563 -199.36914062 239.953125 C-199.29603786 231.0345879 -199.29603786 231.0345879 -197.19921875 227.52612305 C-194.24441352 224.64417684 -191.05950437 222.8855639 -187.39453125 221.0859375 C-186.67496246 220.7206897 -185.95539368 220.35544189 -185.21401978 219.97912598 C-182.88488287 218.79960849 -180.54802726 217.63632331 -178.2109375 216.47265625 C-176.59691214 215.65780553 -174.98355104 214.84163775 -173.37084961 214.02416992 C-170.2231409 212.42951995 -167.07313818 210.83957964 -163.92089844 209.25390625 C-159.20000641 206.87556703 -154.50782213 204.44584832 -149.8359375 201.97265625 C-148.77451538 201.41263916 -148.77451538 201.41263916 -147.69165039 200.84130859 C-143.3085888 198.52187125 -138.94025924 196.17551827 -134.57421875 193.82421875 C-132.26578245 192.58173734 -129.95722579 191.33948312 -127.6484375 190.09765625 C-127.06440155 189.7833667 -126.4803656 189.46907715 -125.87863159 189.14526367 C-115.24856962 183.43034464 -104.53228398 177.89239907 -93.78942871 172.39303589 C-83.83408999 167.2943462 -73.95827809 162.08320581 -64.18017578 156.6496582 C-62.96177002 155.97422974 -62.96177002 155.97422974 -61.71875 155.28515625 C-61.02281738 154.89585937 -60.32688477 154.5065625 -59.60986328 154.10546875 C-55.44462044 151.96138204 -51.37197023 151.541123 -46.7734375 152.16015625 C-44.53526626 153.40358472 -42.78130031 154.61703472 -40.7734375 156.16015625 C-23.42840333 168.10078336 -4.4554856 173.9110467 16.52734375 170.5390625 C36.50101414 166.71976048 53.49910184 155.97467763 65.2265625 139.33203125 C76.47775729 121.48833952 81.38127877 101.61018643 76.7265625 80.72265625 C73.53508609 67.67825965 67.27222128 56.07523418 58.2265625 46.16015625 C57.70964844 45.55171875 57.19273437 44.94328125 56.66015625 44.31640625 C45.83686098 32.3809428 28.54762105 24.28043442 12.59350586 22.9387207 C-12.76672755 21.88270104 -34.54963615 28.63987411 -52.1484375 47.59765625 Z " fill="#FFFFFF" transform="translate(390.7734375,9.83984375)"/>
</svg>
