<?xml version="1.0" encoding="UTF-8"?>
<svg version="1.1" xmlns="http://www.w3.org/2000/svg" width="1401" height="1101">
<path d="M0 0 C1.5368349 -0.00346704 3.0736673 -0.00823856 4.61049461 -0.01418173 C8.78491005 -0.02657786 12.95911684 -0.020574 17.13353252 -0.01122308 C21.65440392 -0.00438565 26.17524147 -0.01493689 30.69610596 -0.02316284 C39.53327303 -0.03645267 48.37036336 -0.03364371 57.20753336 -0.02492492 C64.39428235 -0.01813 71.58100994 -0.01723945 78.76776123 -0.02049637 C79.79340821 -0.02095607 80.81905518 -0.02141577 81.87578237 -0.0218894 C83.95983013 -0.02284864 86.04387789 -0.02382128 88.12792563 -0.02480717 C107.63723659 -0.03334715 127.14650516 -0.02354882 146.65580916 -0.00740607 C163.36968175 0.00599583 180.08349182 0.00366735 196.79736328 -0.01016235 C216.24028107 -0.02624281 235.68316177 -0.0325233 255.12608528 -0.02332556 C257.20215988 -0.02236999 259.27823448 -0.02142687 261.35430908 -0.02049637 C262.88622582 -0.01980213 262.88622582 -0.01980213 264.44909036 -0.01909386 C271.62124106 -0.01651137 278.7933681 -0.02085895 285.96551514 -0.02793503 C294.71450224 -0.03637767 303.46340866 -0.03401203 312.21238661 -0.0180928 C316.67011164 -0.01024713 321.12770251 -0.0070547 325.58542633 -0.01704025 C329.6763867 -0.02606515 333.7670902 -0.02092796 337.8580277 -0.0051076 C339.32753921 -0.00179243 340.79707301 -0.00337894 342.26656985 -0.01073496 C355.32818894 -0.07103623 368.25469466 1.4549847 380.56103516 6.06845093 C381.25624268 6.32336304 381.9514502 6.57827515 382.66772461 6.84091187 C401.86853595 14.09729705 417.53848317 24.98371801 432.06103516 39.38095093 C432.92341797 40.23044312 433.78580078 41.0799353 434.67431641 41.95516968 C446.46708385 54.23695141 454.94516709 69.02166353 462.06103516 84.38095093 C463.26854441 86.97170002 464.47776105 89.56165223 465.68676758 92.15170288 C466.01155846 92.84758766 466.33634933 93.54347244 466.67098236 94.26044464 C467.46762958 95.96729736 468.26432731 97.6741265 469.06103516 99.38095093 C469.62165978 99.38192774 470.1822844 99.38290455 470.75989765 99.38391095 C504.04590803 99.44228391 537.33184415 99.51615656 570.61777299 99.60993721 C574.62156515 99.6212043 578.62535765 99.63234292 582.62915039 99.6434021 C583.42617587 99.64560578 584.22320135 99.64780947 585.04437912 99.65007993 C597.92067165 99.68537561 610.79696412 99.71028326 623.67328697 99.73129795 C636.90246271 99.75312177 650.13157611 99.78623416 663.36069876 99.82965249 C671.51248928 99.85605631 679.66420225 99.87383445 687.81603337 99.88029697 C693.41907736 99.88558558 699.02202408 99.90191762 704.62501579 99.92661659 C707.84937811 99.94051389 711.07353489 99.94819984 714.29793167 99.94595909 C731.38182212 99.93784045 747.36244112 100.92480495 763.81103516 105.94345093 C764.63047607 106.19320679 765.44991699 106.44296265 766.29418945 106.70028687 C805.35820104 119.21676797 836.37907805 147.35775683 855.18994141 183.40829468 C858.93984645 190.84999401 861.93282239 198.41362896 864.37353516 206.38095093 C864.60387451 207.12627075 864.83421387 207.87159058 865.0715332 208.63949585 C865.81252164 211.20562719 866.44143306 213.78258612 867.06103516 216.38095093 C867.44326199 217.96607011 867.44326199 217.96607011 867.83321059 219.5832119 C870.69509615 233.31601175 870.48752026 247.025732 870.44643782 260.9994311 C870.43875732 264.75524796 870.44863504 268.51102843 870.45616782 272.26683998 C870.46695603 278.83531895 870.46670319 285.40372382 870.45902634 291.97220612 C870.44764149 301.74004357 870.45349946 311.50781895 870.46265126 321.27565604 C870.47842219 338.72473194 870.47708979 356.17377481 870.46841452 373.62285382 C870.46086004 388.89307348 870.45890139 404.16328105 870.46248245 419.4335022 C870.46271161 420.44744504 870.46294076 421.46138788 870.46317686 422.50605626 C870.46411092 426.62225216 870.46506612 430.73844804 870.46605615 434.85464392 C870.47522775 473.44703739 870.46692135 512.03940986 870.45076546 550.63180009 C870.43652925 584.8991064 870.43780316 619.16637928 870.45214844 653.4336853 C870.46822147 691.95667979 870.47457723 730.47965574 870.46531165 769.00265312 C870.46434953 773.1112353 870.46341101 777.21981748 870.46248245 781.32839966 C870.4621266 782.84579329 870.4621266 782.84579329 870.46176357 784.39384134 C870.45835492 799.65234667 870.46233494 814.91083857 870.46992111 830.16934204 C870.47850631 847.52350185 870.47633855 864.87762355 870.46007888 882.23177862 C870.45128458 891.93751965 870.45067391 901.64317811 870.4620174 911.34891696 C870.46876504 917.8395935 870.464521 924.33020412 870.4515031 930.82087093 C870.44439663 934.51384845 870.44186377 938.20666247 870.45272104 941.8996346 C870.49213738 956.35616567 870.44960443 970.26306058 867.06103516 984.38095093 C866.83514973 985.35243765 866.6092643 986.32392437 866.37653387 987.32485008 C865.82082358 989.62123485 865.18796323 991.8713529 864.49853516 994.13095093 C864.2487793 994.95039185 863.99902344 995.76983276 863.74169922 996.61410522 C856.86044011 1018.09055562 845.17064646 1036.80025408 830.06103516 1053.38095093 C829.21025391 1054.31552124 828.35947266 1055.25009155 827.48291016 1056.21298218 C802.91278936 1081.92333313 765.86892167 1099.72893587 730.10047983 1100.72591897 C725.84286334 1100.78530265 721.58685893 1100.78021776 717.3289566 1100.76406097 C715.38275053 1100.7678053 713.43654661 1100.77285917 711.49034691 1100.77908981 C706.1656742 1100.79236528 700.84115967 1100.7871402 695.51648302 1100.77875631 C689.71456823 1100.77293101 683.91268308 1100.78450994 678.11077642 1100.793818 C667.28327672 1100.80862448 656.45582537 1100.80991721 645.62831811 1100.80493966 C635.39763635 1100.80038304 625.16698114 1100.80293809 614.93630219 1100.81174088 C614.24665352 1100.81232935 613.55700485 1100.81291783 612.84645774 1100.81352414 C610.0373611 1100.81594084 607.2282645 1100.81840094 604.41916795 1100.8209168 C575.93654722 1100.846393 547.45394545 1100.85240546 518.97131487 1100.85050565 C515.03855544 1100.85024601 511.10579601 1100.85000735 507.17303658 1100.84979057 C506.39183588 1100.84974653 505.61063518 1100.8497025 504.80576174 1100.84965712 C487.47637145 1100.8487929 470.14698411 1100.85358889 452.81759498 1100.85947248 C448.8580272 1100.86081347 444.89845941 1100.86211337 440.93889162 1100.86341813 C439.34968881 1100.86394266 437.76048601 1100.86446725 436.1712832 1100.8649919 C435.38352926 1100.86525168 434.59577531 1100.86551146 433.78415003 1100.86577911 C432.19070582 1100.8663053 430.59726161 1100.86683298 429.0038174 1100.86736213 C383.80067373 1100.88235517 338.59753242 1100.89112993 293.39438629 1100.88640594 C292.55768703 1100.88632008 291.72098777 1100.88623422 290.85893399 1100.88614575 C281.52934199 1100.88518639 272.19975 1100.88414818 262.87015802 1100.88308686 C260.31676562 1100.88279734 257.76337322 1100.88250786 255.20998082 1100.88221846 C253.50631487 1100.88202446 251.80264893 1100.88182896 250.09898299 1100.88163196 C196.23605502 1100.87541735 142.373172 1100.89027141 88.51025391 1100.92294312 C74.93991354 1100.93116677 61.36957314 1100.93931692 47.79923248 1100.94704437 C46.9635826 1100.94752057 46.12793271 1100.94799676 45.2669601 1100.94848739 C19.49870054 1100.96308079 -6.2695553 1100.97151988 -32.03781891 1100.97360992 C-33.25190294 1100.9737094 -33.25190294 1100.9737094 -34.49051392 1100.97381089 C-52.26123805 1100.97520515 -70.0319619 1100.97509346 -87.80268601 1100.97360079 C-94.16186095 1100.97307872 -100.5210359 1100.97266154 -106.88021085 1100.97229262 C-108.46212685 1100.97219941 -110.04404285 1100.97210027 -111.62595885 1100.97199518 C-136.79773061 1100.97037231 -161.96946881 1100.98317173 -187.14123187 1101.00315296 C-212.50402213 1101.02316754 -237.86676245 1101.02682828 -263.22955547 1101.00852721 C-266.74071135 1101.00599371 -270.25186732 1101.00363118 -273.76302338 1101.00136948 C-274.45124793 1101.00091909 -275.13947248 1101.00046871 -275.84855233 1101.00000468 C-287.367513 1100.99294457 -298.88637214 1101.0055721 -310.40531879 1101.02352826 C-320.44760286 1101.03779244 -330.48977399 1101.03375549 -340.5320505 1101.0150825 C-346.24702345 1101.004963 -351.96169905 1101.00251778 -357.67665309 1101.02240318 C-398.85727566 1101.15605054 -437.5691931 1097.19311301 -470.93896484 1070.38095093 C-471.82455078 1069.69645874 -472.71013672 1069.01196655 -473.62255859 1068.30673218 C-504.04912127 1044.26758975 -525.01453113 1008.50369274 -529.72794089 969.80532616 C-530.15723299 964.87334987 -530.07799318 959.92796515 -530.07039261 954.98090458 C-530.07244524 953.73750068 -530.07449788 952.49409678 -530.07661271 951.21301398 C-530.08129139 947.76294719 -530.08151048 944.31293256 -530.07983512 940.86286649 C-530.07910248 937.10879269 -530.08413059 933.35472584 -530.08841014 929.60065502 C-530.09598243 922.155415 -530.09818281 914.71018215 -530.09873919 907.26493868 C-530.0996536 898.34661362 -530.10632342 889.42829519 -530.11308602 880.50997298 C-530.12914065 858.95511033 -530.13504872 837.40024839 -530.13983477 815.84538083 C-530.14217128 805.64677867 -530.14577399 795.44817706 -530.14953014 785.24957534 C-530.16236525 750.33290371 -530.17308441 715.41623239 -530.17653275 680.49955845 C-530.17675438 678.30797346 -530.17697616 676.11638848 -530.1771981 673.92480349 C-530.17741874 671.72795075 -530.17763922 669.53109801 -530.17785954 667.33424526 C-530.1783021 662.92704364 -530.17874921 658.51984201 -530.17919922 654.11264038 C-530.17930861 653.01991184 -530.179418 651.9271833 -530.17953071 650.80134177 C-530.18316096 615.37329486 -530.19908003 579.94526841 -530.22238958 544.51722934 C-530.24699356 507.05324568 -530.26070585 469.58927372 -530.26190066 432.12528175 C-530.26207211 428.01150413 -530.26228754 423.89772651 -530.2625351 419.7839489 C-530.26259086 418.77103464 -530.26264663 417.75812038 -530.26270409 416.71451175 C-530.26385405 400.42390366 -530.27487135 384.13331659 -530.28942215 367.84271559 C-530.30379876 351.46371695 -530.30701756 335.08474523 -530.29898217 318.70574201 C-530.2945314 308.98004645 -530.29836441 299.25443786 -530.31422068 289.52875375 C-530.32399256 283.0244649 -530.3227714 276.52023677 -530.31278445 270.01594843 C-530.30740832 266.31503083 -530.30663055 262.61427986 -530.31929317 258.91337628 C-530.36566966 244.46677519 -530.33299608 230.49942401 -526.93896484 216.38095093 C-526.74170846 215.52047215 -526.54445208 214.65999336 -526.34121823 213.77343947 C-519.67657016 186.65593638 -505.17770657 163.27930666 -485.93896484 143.38095093 C-485.01857422 142.38321655 -485.01857422 142.38321655 -484.07958984 141.36532593 C-462.43030215 118.42994193 -426.05501405 101.48401631 -394.53274548 100.28979099 C-391.64967414 100.25517934 -388.76817422 100.25251292 -385.88490295 100.26069641 C-384.22821812 100.25941477 -384.22821812 100.25941477 -382.5380649 100.25810724 C-378.84233594 100.25646194 -375.1466525 100.26195831 -371.45092773 100.26742554 C-368.79968158 100.26770764 -366.1484382 100.26759324 -363.49719238 100.26698303 C-357.79184054 100.26645941 -352.08650016 100.26958935 -346.3811512 100.27522087 C-338.13223736 100.28335774 -329.88332904 100.28595333 -321.63441163 100.28720886 C-308.25016776 100.28939594 -294.86593 100.29604671 -281.48168945 100.30551147 C-268.4823408 100.31469448 -255.48299382 100.32177097 -242.48364258 100.32601929 C-241.68197983 100.32628201 -240.88031709 100.32654473 -240.05436153 100.32681542 C-236.03254081 100.32812048 -232.01072009 100.32938418 -227.98889935 100.33062732 C-194.63891675 100.34098923 -161.28894155 100.3585982 -127.93896484 100.38095093 C-127.63590376 99.45944244 -127.63590376 99.45944244 -127.32672024 98.51931763 C-127.05957746 97.71149841 -126.79243467 96.9036792 -126.51719666 96.07138062 C-126.25328094 95.27141663 -125.98936522 94.47145264 -125.71745205 93.64724731 C-118.2054966 71.77878581 -105.2261234 52.57971242 -88.93896484 36.38095093 C-88.05724609 35.49923218 -87.17552734 34.61751343 -86.26708984 33.70907593 C-62.81664018 11.36870673 -32.19258527 -0.16115001 0 0 Z M-17.93896484 108.38095093 C-18.44943359 108.83856812 -18.95990234 109.2961853 -19.48583984 109.76766968 C-23.07292647 113.44154066 -25.29280685 117.79580866 -27.54443359 122.36141968 C-27.88967575 123.05727676 -28.23491791 123.75313385 -28.59062195 124.47007751 C-33.02514785 133.48716372 -37.13406555 142.65354657 -41.25146484 151.81845093 C-42.08770105 153.67461946 -42.92404639 155.53073884 -43.76049805 157.3868103 C-46.15972272 162.71532803 -48.55090461 168.0474218 -50.93896484 173.38095093 C-51.27053589 174.12097351 -51.60210693 174.86099609 -51.94372559 175.6234436 C-53.84661939 179.8721355 -55.74047576 184.1247193 -57.62646484 188.38095093 C-58.30286011 189.89966797 -58.30286011 189.89966797 -58.99291992 191.44906616 C-59.39148193 192.35471313 -59.79004395 193.26036011 -60.20068359 194.19345093 C-60.54059326 194.96302124 -60.88050293 195.73259155 -61.23071289 196.52548218 C-62.05783611 198.36136029 -62.05783611 198.36136029 -61.93896484 200.38095093 C-62.60652711 200.38019149 -63.27408938 200.37943205 -63.9618808 200.37864959 C-103.56058562 200.33385632 -143.15928715 200.29955905 -182.75801218 200.27882027 C-187.51673473 200.27631897 -192.27545722 200.27373031 -197.03417969 200.27108765 C-197.98152284 200.27056303 -198.92886599 200.2700384 -199.90491651 200.26949789 C-215.22760082 200.26080433 -230.55027006 200.24504015 -245.87294544 200.22664534 C-261.60504475 200.20791706 -277.33713618 200.19682802 -293.06924617 200.19277394 C-302.77034418 200.19003495 -312.47139961 200.18139596 -322.1724845 200.16511799 C-328.83230742 200.15451495 -335.49210843 200.1513578 -342.15193917 200.15394817 C-345.98955769 200.15522431 -349.82710199 200.15332094 -353.66470718 200.14253998 C-357.83748319 200.13090386 -362.01010316 200.13500084 -366.18289185 200.14044189 C-367.37943362 200.13461621 -368.5759754 200.12879053 -369.80877602 200.12278831 C-388.12972532 200.1870329 -403.5513049 203.11998808 -416.93896484 216.38095093 C-431.7645283 233.68662723 -430.23988905 254.98642923 -430.19589995 276.46330357 C-430.19079126 280.04667875 -430.19736026 283.63003673 -430.20238662 287.21340942 C-430.20958707 293.48368407 -430.20940501 299.75392423 -430.2042923 306.02420044 C-430.19671011 315.34850845 -430.20060375 324.67278751 -430.20670891 333.99709535 C-430.2172288 350.65276824 -430.21633223 367.30842577 -430.21055109 383.96410012 C-430.2055168 398.53990099 -430.20420805 413.11569624 -430.20659637 427.6914978 C-430.20674914 428.65894645 -430.20690191 429.62639509 -430.20705931 430.62316036 C-430.20768201 434.55050771 -430.20831881 438.47785505 -430.20897884 442.40520239 C-430.21509464 479.23469061 -430.2095534 516.06416906 -430.19878505 552.89365578 C-430.18929409 585.60296773 -430.19014335 618.31226411 -430.19970703 651.02157593 C-430.21042 687.78439574 -430.21466088 724.54720692 -430.2084825 761.31002808 C-430.20784108 765.2301534 -430.2072154 769.15027873 -430.20659637 773.07040405 C-430.20643822 774.03561446 -430.20628007 775.00082487 -430.20611712 775.99528408 C-430.20384371 790.56069103 -430.20649987 805.12609172 -430.21155548 819.6914978 C-430.21727625 836.25566194 -430.21583951 852.81980833 -430.20499399 869.38397026 C-430.1991266 878.65039821 -430.1987306 887.91678772 -430.20628634 897.18321466 C-430.21077928 903.37733126 -430.20796522 909.57141711 -430.1992768 915.76552916 C-430.19453164 919.29161629 -430.19286662 922.81762719 -430.20008877 926.34371185 C-430.72929878 958.13473729 -430.72929878 958.13473729 -415.93896484 985.38095093 C-399.94466123 999.78904261 -382.68772495 1000.69018147 -362.16531372 1000.63263321 C-360.27471358 1000.6347223 -358.38411425 1000.63768689 -356.49351668 1000.64144194 C-351.30469109 1000.64921518 -346.11594012 1000.64457791 -340.92711577 1000.63788604 C-335.27957252 1000.63280722 -329.63204061 1000.63933462 -323.98449898 1000.6443727 C-314.08850802 1000.65159474 -304.19253889 1000.65137774 -294.29654694 1000.64627838 C-283.6816902 1000.64082344 -273.06684488 1000.63962002 -262.45198822 1000.64375305 C-261.78076666 1000.6440114 -261.1095451 1000.64426974 -260.4179835 1000.64453592 C-257.6840632 1000.64560249 -254.95014291 1000.64669992 -252.21622263 1000.64783647 C-226.76945116 1000.65840779 -201.32268825 1000.65913579 -175.87591553 1000.65354156 C-174.74552264 1000.65329318 -174.74552264 1000.65329318 -173.59229354 1000.65303977 C-172.83748931 1000.65287392 -172.08268508 1000.65270806 -171.30500799 1000.65253717 C-148.30573428 1000.64749002 -125.3064641 1000.64618839 -102.30718994 1000.64858246 C-100.76681225 1000.64873742 -99.22643456 1000.64889173 -97.68605687 1000.6490454 C-91.49585415 1000.64966634 -85.30565143 1000.65030367 -79.11544872 1000.65096493 C-61.81147309 1000.65279891 -44.50749745 1000.65394013 -27.20352173 1000.6545372 C-26.02156726 1000.65457814 -26.02156726 1000.65457814 -24.81573493 1000.6546199 C0.29086353 1000.65543841 25.39746076 1000.65318494 50.50405884 1000.64883804 C51.31831989 1000.64869755 52.13258094 1000.64855705 52.97151656 1000.64841229 C66.19443091 1000.64612242 79.41734524 1000.64368348 92.64025956 1000.64123194 C145.08325589 1000.63151934 197.526242 1000.63197014 249.96923828 1000.64169312 C263.185496 1000.64413551 276.40175372 1000.64655762 289.61801147 1000.64883804 C290.43179428 1000.64897894 291.24557708 1000.64911984 292.08401997 1000.649265 C317.16454416 1000.65357763 342.2450675 1000.65540587 367.32559204 1000.6545372 C368.11298242 1000.65451003 368.90037279 1000.65448286 369.71162348 1000.65445487 C386.99640267 1000.6538299 404.28118178 1000.6525626 421.56596088 1000.6507162 C427.75061605 1000.65005792 433.93527123 1000.64943176 440.1199264 1000.64881477 C441.65849513 1000.64866 443.19706386 1000.64850254 444.73563259 1000.64834238 C467.72854451 1000.64595557 490.72145243 1000.64798736 513.71436385 1000.65303977 C514.84475674 1000.65328816 514.84475674 1000.65328816 515.99798584 1000.65354156 C516.75018975 1000.65370693 517.50239366 1000.65387229 518.27739163 1000.65404267 C543.65103125 1000.65955982 569.02466059 1000.65752846 594.39829874 1000.64698008 C597.12355199 1000.64587538 599.84880526 1000.64480197 602.57405853 1000.64375305 C603.5772877 1000.64336243 603.5772877 1000.64336243 604.60078413 1000.64296392 C615.82996841 1000.63878108 627.05914181 1000.64248607 638.28832533 1000.64827243 C648.05641781 1000.65275123 657.82449072 1000.64997684 667.5925803 1000.64126289 C673.16079046 1000.63649811 678.72895219 1000.6348937 684.29716086 1000.64207485 C689.36471802 1000.64854377 694.43218385 1000.64577855 699.49973437 1000.63571353 C701.31955364 1000.63370265 703.13938051 1000.63502235 704.95919374 1000.64012541 C724.81283765 1000.69183856 740.55264345 998.91432314 756.06103516 985.38095093 C768.6317093 972.19582428 770.22223558 955.57206387 770.18966961 938.25741959 C770.19142265 937.06821391 770.19317568 935.87900824 770.19498184 934.65376604 C770.19882099 931.36505305 770.19821883 928.07637619 770.19570407 924.78766306 C770.19406489 921.20506186 770.19821689 917.62246648 770.20161325 914.03986716 C770.20675879 907.76475061 770.20818592 901.48964177 770.20715714 895.21452332 C770.205631 885.88294427 770.20979662 876.55137375 770.21503176 867.21979636 C770.22469981 849.58313912 770.22751579 831.94648479 770.22808882 814.30982521 C770.22854845 800.68985398 770.23060723 787.06988389 770.23378944 773.44991302 C770.23468699 769.52873604 770.23557681 765.60755905 770.23646432 761.68638206 C770.23679589 760.22414085 770.23679589 760.22414085 770.23713416 758.73235943 C770.24328783 731.31457563 770.24723478 703.89679224 770.24679089 676.47900772 C770.24677531 675.44541876 770.24675973 674.41182979 770.24674368 673.34691995 C770.24666057 668.1083152 770.24656153 662.86971044 770.24645897 657.63110569 C770.24643902 656.59070809 770.24641908 655.55031048 770.24639853 654.47838568 C770.24635809 652.37444877 770.24631629 650.27051187 770.24627314 648.16657497 C770.24566035 615.43106303 770.25316778 582.69556146 770.2668457 549.96005249 C770.282208 513.1782189 770.29081185 476.39639212 770.28988248 439.61455512 C770.28980785 435.69212071 770.28975914 431.7696863 770.28972816 427.84725189 C770.28971651 426.88145548 770.28970486 425.91565907 770.28969285 424.9205961 C770.28966208 409.38267577 770.29604621 393.84476443 770.30466043 378.30684676 C770.31313938 362.6898886 770.31412494 347.07294358 770.30755111 331.45598438 C770.30385718 322.18068819 770.30568315 312.90543197 770.31549345 303.63014001 C770.32149666 297.42997305 770.32019417 291.22983501 770.31302295 285.02966937 C770.30914437 281.50005369 770.30835732 277.97051533 770.3164803 274.44090512 C770.75858876 242.68467406 770.75858876 242.68467406 756.06103516 215.38095093 C742.23127373 201.69088406 724.92249836 200.04979745 706.30496216 200.14044189 C704.33916476 200.13787862 704.33916476 200.13787862 702.33365428 200.13526356 C698.73953906 200.13084079 695.14554548 200.1387228 691.55144572 200.14881968 C687.65935857 200.15752603 683.76727727 200.15452899 679.87518311 200.15301514 C673.14627608 200.15197079 666.4174081 200.15820004 659.68851089 200.16949081 C649.95988211 200.1858043 640.23127203 200.19095978 630.50263105 200.1934668 C614.71528502 200.19783476 598.92795976 200.21111938 583.140625 200.23007202 C567.81250105 200.24845415 552.48438276 200.26259921 537.15625 200.27108765 C536.21006354 200.27161309 535.26387707 200.27213854 534.28901829 200.27267991 C529.54187255 200.27529015 524.79472677 200.27781752 520.04758096 200.28030372 C480.71871782 200.30100821 441.38987787 200.33620915 402.06103516 200.38095093 C401.85601155 199.76005419 401.65098795 199.13915746 401.43975151 198.49944568 C401.0355573 197.28006616 401.0355573 197.28006616 400.62319756 196.0360527 C400.35629895 195.22953097 400.08940035 194.42300924 399.81441391 193.59204745 C399.04197992 191.32502558 398.17746256 189.14244373 397.18261719 186.96395874 C396.67461075 185.842565 396.67461075 185.842565 396.15634155 184.69851685 C395.61803207 183.52811859 395.61803207 183.52811859 395.06884766 182.33407593 C394.68636871 181.49241882 394.30388977 180.65076172 393.90982056 179.78359985 C392.67291636 177.06404021 391.42976696 174.34739407 390.18603516 171.63095093 C388.4631376 167.85561213 386.74247642 164.07925611 385.02197266 160.30282593 C384.59581665 159.36865845 384.16966064 158.43449097 383.73059082 157.47201538 C381.16542734 151.83996427 378.64140399 146.19212443 376.16259766 140.52157593 C375.58308541 139.20220591 375.00349826 137.88286878 374.42382812 136.56356812 C373.38306936 134.19362431 372.35557039 131.81935491 371.33496094 129.44052124 C366.52622011 118.50839591 360.35681611 107.83234558 349.49853516 102.00595093 C341.84742478 100.04412775 334.23222008 100.23785198 326.37882996 100.24723816 C324.97748275 100.24536857 323.57613607 100.24306727 322.1747902 100.24037284 C318.33337071 100.23426677 314.49197301 100.23438702 310.65054977 100.23556721 C306.50388179 100.23577152 302.35722076 100.23024961 298.21055603 100.22550964 C290.0900804 100.21720916 281.96961202 100.21445508 273.8491325 100.21389727 C267.24755307 100.21342184 260.64597603 100.21136574 254.04439735 100.20819664 C235.32165015 100.19939185 216.59890868 100.19477701 197.87615939 100.19552711 C196.36266923 100.19558705 196.36266923 100.19558705 194.81860352 100.19564819 C193.80837611 100.19568907 192.7981487 100.19572995 191.75730834 100.19577207 C175.38478762 100.19617853 159.0122899 100.18660853 142.63977583 100.17250983 C125.82265975 100.15814269 109.00555489 100.15123982 92.18843251 100.1521036 C82.74927601 100.15243545 73.31014363 100.14969383 63.87099266 100.13892555 C55.83456025 100.12981614 47.79816288 100.12764895 39.76172753 100.13443498 C35.66330122 100.13769789 31.56494212 100.13776509 27.46652222 100.12908173 C23.71049543 100.12120579 19.95458905 100.12265929 16.19856516 100.13136586 C14.20506403 100.13362127 12.21155913 100.12608081 10.21807259 100.11812621 C-0.85426426 100.1605609 -9.57857931 100.62033219 -17.93896484 108.38095093 Z " fill="#FFFFFF" transform="translate(530.93896484375,0.619049072265625)"/>
<path d="M0 0 C1.05670898 0.00182281 2.11341797 0.00364563 3.20214844 0.00552368 C18.78897054 0.05076909 34.00818472 0.4760178 49.375 3.3125 C50.83123779 3.56990967 50.83123779 3.56990967 52.31689453 3.83251953 C101.08161653 12.62383964 146.42685895 32.68529776 185.375 63.3125 C186.37015625 64.09367187 187.3653125 64.87484375 188.390625 65.6796875 C205.07442186 79.07439298 221.36414879 94.30006889 234.375 111.3125 C235.37514564 112.57383451 236.37654612 113.83417459 237.37890625 115.09375 C267.28347804 153.01222828 286.91078676 197.4387625 296.1875 244.75 C296.3824707 245.74241699 296.57744141 246.73483398 296.77832031 247.75732422 C299.96844452 264.9766807 300.74851094 281.89762195 300.6875 299.375 C300.68476578 300.99932449 300.68476578 300.99932449 300.68197632 302.65646362 C300.63731767 318.40670911 300.24690654 333.78554861 297.375 349.3125 C297.12556641 350.74263428 297.12556641 350.74263428 296.87109375 352.20166016 C292.57347622 376.43942718 285.36865896 399.83219632 275.375 422.3125 C275.02356934 423.11558594 274.67213867 423.91867187 274.31005859 424.74609375 C256.01731775 466.25621643 226.19683447 505.34545325 190.375 533.3125 C189.29405262 534.21407473 188.21609697 535.11924447 187.140625 536.02734375 C140.23254179 575.26574595 74.96706166 600.22081506 13.6796875 600.515625 C12.69710968 600.52263931 11.71453186 600.52965363 10.70217896 600.53688049 C7.5514054 600.55427511 4.4008198 600.5607321 1.25 600.5625 C0.17331055 600.56317474 -0.90337891 600.56384949 -2.01269531 600.56454468 C-17.75916533 600.54885101 -33.0993254 600.17830523 -48.625 597.3125 C-49.5958252 597.14089355 -50.56665039 596.96928711 -51.56689453 596.79248047 C-121.57764963 584.17091853 -189.8711914 546.26717305 -233.625 489.3125 C-234.39714844 488.34570312 -235.16929687 487.37890625 -235.96484375 486.3828125 C-266.15448398 448.13306295 -286.07402327 403.62873134 -295.4375 355.875 C-295.6324707 354.88258301 -295.82744141 353.89016602 -296.02832031 352.86767578 C-299.0534135 336.53910839 -299.97463441 320.49095297 -299.94067383 303.91064453 C-299.93752434 300.71221429 -299.9610382 297.51472247 -299.98632812 294.31640625 C-300.04338242 275.78922388 -298.34901369 257.43503242 -294.375 239.3125 C-294.16593018 238.34014404 -293.95686035 237.36778809 -293.74145508 236.3659668 C-279.21825545 170.92490198 -242.38783151 107.42950421 -188.625 66.3125 C-187.36366549 65.31235436 -186.10332541 64.31095388 -184.84375 63.30859375 C-146.93616242 33.41261095 -102.53796041 13.81058288 -55.25 4.5 C-54.26596191 4.3050293 -53.28192383 4.11005859 -52.26806641 3.90917969 C-34.89737267 0.68046854 -17.63350782 -0.06324912 0 0 Z M-86.625 120.3125 C-87.35831543 120.67633789 -88.09163086 121.04017578 -88.84716797 121.41503906 C-127.30724106 140.69113056 -158.07095053 171.01101621 -177.625 209.3125 C-178.17196533 210.37766846 -178.17196533 210.37766846 -178.72998047 211.46435547 C-192.66571968 238.92577367 -199.06825793 268.98876714 -199 299.6875 C-198.99978851 300.56690247 -198.99957703 301.44630493 -198.99935913 302.35235596 C-198.96509558 316.66152856 -197.9938418 330.35626225 -194.625 344.3125 C-194.43776367 345.11155762 -194.25052734 345.91061523 -194.05761719 346.73388672 C-192.79375008 351.99999966 -191.29216366 357.16091811 -189.625 362.3125 C-189.38974609 363.05209961 -189.15449219 363.79169922 -188.91210938 364.55371094 C-172.94414043 413.78477086 -136.47779787 454.90062652 -90.625 478.3125 C-88.88669922 479.22902344 -88.88669922 479.22902344 -87.11328125 480.1640625 C-40.83851333 503.27506404 13.91572949 506.0726663 62.83691406 490.171875 C114.03324184 472.83721996 155.27932174 437.06682986 179.74243164 388.87329102 C189.07219282 369.83768215 195.42943136 349.29967656 198.375 328.3125 C198.54862061 327.08039795 198.72224121 325.8482959 198.90112305 324.57885742 C199.43265348 320.25674831 199.56974893 315.97635146 199.61328125 311.625 C199.6230751 310.81323807 199.63286896 310.00147614 199.64295959 309.16511536 C199.81478376 291.22387137 199.70085368 273.84000175 195.375 256.3125 C195.15005859 255.40032715 194.92511719 254.4881543 194.69335938 253.54833984 C193.1289793 247.3996366 191.33168251 241.34686841 189.375 235.3125 C189.04725586 234.27851074 189.04725586 234.27851074 188.71289062 233.22363281 C183.13789381 215.95829651 174.20646226 198.85109753 163.375 184.3125 C162.97490723 183.77399414 162.57481445 183.23548828 162.16259766 182.68066406 C129.1716933 138.61840397 82.70389458 111.04764341 28.375 102.3125 C22.79235019 101.51380126 17.35855632 101.13087836 11.72265625 101.07421875 C10.9137645 101.06437958 10.10487274 101.05454041 9.27146912 101.04440308 C-24.54935789 100.7181123 -56.01227888 105.04469451 -86.625 120.3125 Z " fill="#FFFFFF" transform="translate(700.625,300.6875)"/>
<path d="M0 0 C33 0 66 0 100 0 C100 33 100 66 100 100 C67 100 34 100 0 100 C0 67 0 34 0 0 Z " fill="#FFFFFF" transform="translate(201,301)"/>
</svg>
