<?xml version="1.0" encoding="UTF-8"?>
<svg version="1.1" xmlns="http://www.w3.org/2000/svg" width="1600" height="1600">
<path d="M0 0 C1.93346806 1.32310036 3.86706689 2.64600964 5.80078125 3.96875 C7.29472412 4.99162109 7.29472412 4.99162109 8.81884766 6.03515625 C13.93485025 9.53355713 19.06136234 13.01647435 24.1875 16.5 C26.29818973 17.93487724 28.40886673 19.36977318 30.51953125 20.8046875 C31.56963379 21.51850586 32.61973633 22.23232422 33.70166016 22.96777344 C36.84685266 25.10586552 39.99183241 27.24427012 43.13671875 29.3828125 C44.68238525 30.43384155 44.68238525 30.43384155 46.25927734 31.50610352 C48.33135082 32.91524987 50.4032916 34.32459136 52.47509766 35.73413086 C57.81722648 39.36817213 63.16209593 42.9980939 68.51171875 46.62109375 C74.64250544 50.77493865 80.76343253 54.94293214 86.875 59.125 C87.64038086 59.64739258 88.40576172 60.16978516 89.19433594 60.70800781 C105.76332569 72.0627077 118.19516799 85.72280589 122.53125 106.02734375 C126.07885884 127.67582042 120.13438207 145.45620551 107.875 163.0625 C106.98819189 164.36081162 106.10289165 165.6601543 105.21899414 166.96044922 C103.37662583 169.66609339 101.52603002 172.36580833 99.66845703 175.06103516 C96.94284588 179.0192181 94.24648884 182.99660641 91.55859375 186.98046875 C88.05762312 192.16743228 84.55117041 197.35056319 81.03515625 202.52734375 C80.60372314 203.16257965 80.17229004 203.79781555 79.7277832 204.45230103 C78.86649548 205.72039123 78.00518788 206.98846793 77.14385986 208.25653076 C75.09352963 211.27576013 73.04480687 214.29607945 70.99609375 217.31640625 C65.90159729 224.82654642 60.80500031 232.33526005 55.70825195 239.84387207 C43.63992027 257.62326848 31.58205057 275.40971514 19.53222656 293.20166016 C14.71044856 300.32107135 9.88766483 307.43980131 5.06506348 314.55865479 C3.75430684 316.493526 2.44355697 318.4284018 1.1328125 320.36328125 C0.70009033 321.002052 0.26736816 321.64082275 -0.1784668 322.2989502 C-2.82379481 326.20396992 -5.46888547 330.10915031 -8.11380005 334.01445007 C-20.49640818 352.29774801 -32.89006322 370.57350965 -45.29174805 388.84387207 C-57.36007973 406.62326848 -69.41794943 424.40971514 -81.46777344 442.20166016 C-86.28955144 449.32107135 -91.11233517 456.43980131 -95.93493652 463.55865479 C-97.24569316 465.493526 -98.55644303 467.4284018 -99.8671875 469.36328125 C-100.29990967 470.002052 -100.73263184 470.64082275 -101.1784668 471.2989502 C-103.82379481 475.20396992 -106.46888547 479.10915031 -109.11380005 483.01445007 C-121.49640818 501.29774801 -133.89006322 519.57350965 -146.29174805 537.84387207 C-159.24716151 556.93014162 -172.18963229 576.02513962 -185.125 595.125 C-188.66651789 600.35426744 -192.20813134 605.58347013 -195.75 610.8125 C-196.18616638 611.45643707 -196.62233276 612.10037415 -197.07171631 612.76382446 C-203.64028906 622.4609913 -210.21461666 632.15423739 -216.7925415 641.84506226 C-223.07541299 651.10139756 -229.35172745 660.3621569 -235.625 669.625 C-242.28685368 679.46160519 -248.95285764 689.29537065 -255.625 699.125 C-262.25485272 708.89254917 -268.87965191 718.66350606 -275.5 728.4375 C-275.93600525 729.08119537 -276.3720105 729.72489075 -276.82122803 730.38809204 C-279.92264648 734.96695224 -283.02384784 739.54595945 -286.125 744.125 C-289.66651789 749.35426744 -293.20813134 754.58347013 -296.75 759.8125 C-297.18616638 760.45643707 -297.62233276 761.10037415 -298.07171631 761.76382446 C-304.64028906 771.4609913 -311.21461666 781.15423739 -317.7925415 790.84506226 C-324.07541299 800.10139756 -330.35172745 809.3621569 -336.625 818.625 C-343.28685368 828.46160519 -349.95285764 838.29537065 -356.625 848.125 C-363.25485272 857.89254917 -369.87965191 867.66350606 -376.5 877.4375 C-376.93600525 878.08119537 -377.3720105 878.72489075 -377.82122803 879.38809204 C-380.92264648 883.96695224 -384.02384784 888.54595945 -387.125 893.125 C-390.66651789 898.35426744 -394.20813134 903.58347013 -397.75 908.8125 C-398.18616638 909.45643707 -398.62233276 910.10037415 -399.07171631 910.76382446 C-405.64028906 920.4609913 -412.21461666 930.15423739 -418.7925415 939.84506226 C-425.07541299 949.10139756 -431.35172745 958.3621569 -437.625 967.625 C-444.28685368 977.46160519 -450.95285764 987.29537065 -457.625 997.125 C-464.25485272 1006.89254917 -470.87965191 1016.66350606 -477.5 1026.4375 C-477.93600525 1027.08119537 -478.3720105 1027.72489075 -478.82122803 1028.38809204 C-481.92264648 1032.96695224 -485.02384784 1037.54595945 -488.125 1042.125 C-489.45756458 1044.09261298 -490.79013445 1046.06022236 -492.12272644 1048.02781677 C-493.00923468 1049.33677102 -493.89571949 1050.64574114 -494.78218079 1051.95472717 C-496.97593479 1055.19394068 -499.17030693 1058.4327323 -501.3659668 1061.6706543 C-505.26146062 1067.41605216 -509.15397989 1073.16329069 -513.02740479 1078.92359924 C-514.71817077 1081.43711154 -516.41210757 1083.94847849 -518.10638428 1086.45962524 C-518.89019163 1087.62311965 -519.67254213 1088.78759728 -520.45318604 1089.95321655 C-538.26506711 1116.54520778 -559.45013925 1139.78456463 -591.79296875 1147.5 C-620.87671491 1152.42778756 -650.52746202 1143.34976961 -674.515625 1126.86328125 C-686.99425783 1117.69628559 -697.77340681 1106.62743918 -708.69325256 1095.71064758 C-710.26269065 1094.14523073 -711.83233752 1092.58002317 -713.40217394 1091.01500577 C-717.69705403 1086.73202195 -721.98883386 1082.44594347 -726.28006089 1078.15929997 C-730.43903778 1074.00569 -734.60031527 1069.85438684 -738.76144077 1065.70292955 C-750.42573782 1054.06538049 -762.08422299 1042.42201545 -773.74188796 1030.77782348 C-776.90114717 1027.62223964 -780.06056973 1024.46681937 -783.22002864 1021.31143546 C-802.85520729 1001.70151349 -822.48877433 982.08997946 -842.11754704 962.47364521 C-846.6578494 957.9362638 -851.1981751 953.39890573 -855.73852539 948.86157227 C-856.30255992 948.29790865 -856.86659445 947.73424503 -857.44772093 947.15350069 C-875.74062845 928.87275234 -894.04291087 910.60142699 -912.35056817 892.33545101 C-931.19281533 873.53602386 -950.02693863 854.72849825 -968.85040333 835.91026363 C-971.5106386 833.25076873 -974.170959 830.591359 -976.83132744 827.9319973 C-977.6166155 827.14699516 -977.6166155 827.14699516 -978.41776796 826.3461344 C-986.82754769 817.93986196 -995.24567732 809.54199996 -1003.66691435 801.14720702 C-1012.13494374 792.70536797 -1020.59367426 784.25429969 -1029.04314024 775.79387984 C-1033.61715381 771.21468437 -1038.19508899 766.63960234 -1042.78407669 762.07540894 C-1046.9899126 757.89210778 -1051.18390855 753.69729586 -1055.36901873 749.49326303 C-1056.87998423 747.97950366 -1058.39513683 746.46990886 -1059.91500569 744.965089 C-1070.44703677 734.53094367 -1080.75080115 723.74136013 -1085.125 709.1875 C-1085.49625 708.00285156 -1085.8675 706.81820312 -1086.25 705.59765625 C-1090.841176 687.37642651 -1087.74364295 668.89930925 -1078.21079063 652.81169891 C-1069.62318123 639.47145541 -1055.69090909 628.45176952 -1044.54296875 617.234375 C-1044.02956255 616.71767148 -1043.51615635 616.20096796 -1042.98719239 615.66860676 C-1038.12655258 610.77725008 -1033.26386877 605.88793345 -1028.39638805 601.00338364 C-1022.2266532 594.81173299 -1016.06723358 588.61020019 -1009.92133158 582.39488959 C-1005.56551184 577.99159062 -1001.19803394 573.60006587 -996.82202893 569.21682763 C-994.22301582 566.61290219 -991.62912285 564.00435038 -989.04781151 561.38286591 C-973.0243444 545.1217589 -957.09894082 530.33717638 -932.97998047 529.83251953 C-910.38338743 529.66681388 -894.25154606 537.17284693 -878.08946991 552.91722775 C-876.27879778 554.72088462 -874.47350943 556.52995722 -872.67272949 558.3434906 C-871.65950141 559.35656226 -870.64583028 560.36919097 -869.63176012 561.38141972 C-866.87173447 564.13893469 -864.11793195 566.90258947 -861.36517239 569.66735542 C-858.38599141 572.65729377 -855.40095385 575.64137539 -852.41662598 578.62617493 C-847.25487936 583.79027626 -842.09674128 588.95795898 -836.94102478 594.12808037 C-829.48517016 601.60466796 -822.02327382 609.07520229 -814.55982167 616.54420484 C-802.44696737 628.66630024 -790.33821965 640.79248865 -778.23242188 652.92163086 C-777.50889151 653.64655454 -776.78536114 654.37147822 -776.03990561 655.11836929 C-775.315435 655.84423543 -774.59096439 656.57010157 -773.84454012 657.31796366 C-763.5556184 667.62668516 -753.26570611 677.93441657 -742.97460938 688.2409668 C-741.88700606 689.33020639 -741.88700606 689.33020639 -740.77743095 690.44145083 C-728.70348205 702.53339974 -716.62751681 714.6233337 -704.5505147 726.71223313 C-697.10206618 734.16828174 -689.65570457 741.62640384 -682.21201044 749.08719904 C-677.12004601 754.19070094 -672.02641182 759.292532 -666.93144172 764.39303326 C-663.9891362 767.33868085 -661.04769654 770.2851808 -658.10842896 773.23386002 C-655.42156206 775.92931547 -652.73244272 778.62250164 -650.0414682 781.31385613 C-649.06508188 782.29121348 -648.08955808 783.26943336 -647.11495584 784.24856978 C-645.79686802 785.57255748 -644.47543246 786.89320989 -643.15380096 788.21366024 C-642.41876705 788.95015802 -641.68373313 789.68665581 -640.92642546 790.4454717 C-639.21956546 792.1955644 -639.21956546 792.1955644 -637.125 793.125 C-636.90585937 792.45855469 -636.68671875 791.79210937 -636.4609375 791.10546875 C-634.69614327 787.16822314 -632.28216661 783.91587834 -629.75 780.4375 C-625.62924406 774.68729281 -621.58810859 768.90182653 -617.6875 763 C-612.24197423 754.77520725 -606.72376649 746.60133856 -601.1875 738.4375 C-600.73990326 737.77734894 -600.29230652 737.11719788 -599.83114624 736.43704224 C-597.98846414 733.71938324 -596.14561243 731.00183944 -594.30241394 728.28453064 C-591.1229171 723.59720185 -587.94544088 718.90851 -584.76953125 714.21875 C-584.11485115 713.25201355 -584.11485115 713.25201355 -583.44694519 712.26574707 C-582.56917073 710.96956546 -581.69139871 709.6733822 -580.81362915 708.37719727 C-571.37348349 694.43793235 -561.92257335 680.5059879 -552.46777344 666.57666016 C-550.10583988 663.09686961 -547.74427333 659.61683011 -545.3828125 656.13671875 C-544.99053467 655.5586145 -544.59825684 654.98051025 -544.1940918 654.3848877 C-543.00438857 652.63159584 -541.8146928 650.87829893 -540.625 649.125 C-531.90233756 636.27005564 -531.90233756 636.27005564 -527.61383057 629.95199585 C-518.94487443 617.18039792 -510.28086015 604.40547797 -501.625 591.625 C-494.92088714 581.72629956 -488.21356486 571.82979263 -481.5 561.9375 C-481.11100525 561.36432037 -480.7220105 560.79114075 -480.32122803 560.20059204 C-477.20046009 555.60228523 -474.07936426 551.004201 -470.95825195 546.40612793 C-468.22201204 542.37502444 -465.48590681 538.34382958 -462.75 534.3125 C-462.36116638 533.73956207 -461.97233276 533.16662415 -461.57171631 532.57632446 C-455.25113046 523.26261032 -448.93690399 513.9445995 -442.625 504.625 C-435.92088714 494.72629956 -429.21356486 484.82979263 -422.5 474.9375 C-422.11100525 474.36432037 -421.7220105 473.79114075 -421.32122803 473.20059204 C-418.20046009 468.60228523 -415.07936426 464.004201 -411.95825195 459.40612793 C-399.00283849 440.31985838 -386.06036771 421.22486038 -373.125 402.125 C-360.58107115 383.60312301 -348.0309823 365.08546578 -335.46777344 346.57666016 C-333.10583988 343.09686961 -330.74427333 339.61683011 -328.3828125 336.13671875 C-327.99053467 335.5586145 -327.59825684 334.98051025 -327.1940918 334.3848877 C-326.00438857 332.63159584 -324.8146928 330.87829893 -323.625 329.125 C-314.90233756 316.27005564 -314.90233756 316.27005564 -310.61383057 309.95199585 C-301.94487443 297.18039792 -293.28086015 284.40547797 -284.625 271.625 C-277.92088714 261.72629956 -271.21356486 251.82979263 -264.5 241.9375 C-264.11100525 241.36432037 -263.7220105 240.79114075 -263.32122803 240.20059204 C-260.20046009 235.60228523 -257.07936426 231.004201 -253.95825195 226.40612793 C-244.54984912 212.54541147 -235.14493874 198.68234721 -225.75 184.8125 C-225.09726105 183.84886032 -225.09726105 183.84886032 -224.43133545 182.86575317 C-219.97893032 176.29251324 -215.52707643 169.71890021 -211.07577515 163.14491272 C-201.91923536 149.62218367 -192.75570912 136.10436596 -183.56835938 122.60253906 C-175.3018095 110.45063328 -167.06348257 98.2796163 -158.82324219 86.10986328 C-149.23185002 71.94468162 -139.63765572 57.78139694 -130.0390625 43.62109375 C-129.62755951 43.01392517 -129.21605652 42.40675659 -128.79208374 41.78118896 C-126.7786402 38.81110226 -124.76326353 35.84236168 -122.74365234 32.87646484 C-119.27773212 27.78501649 -115.82529478 22.68688194 -112.4375 17.54296875 C-99.1798486 -2.48686531 -84.23317396 -15.49786161 -60.26171875 -20.46875 C-36.91664465 -23.58614988 -18.46216483 -12.68139713 0 0 Z " fill="#FFFFFF" transform="translate(1273.125,221.875)"/>
</svg>
