<?xml version="1.0" encoding="UTF-8"?>
<svg version="1.1" xmlns="http://www.w3.org/2000/svg" width="99" height="107">
<path d="M0 0 C0.73221771 -0.0049649 1.46443542 -0.00992981 2.21884155 -0.01504517 C4.6356501 -0.02962292 7.05239303 -0.03646106 9.46923828 -0.04199219 C11.15308635 -0.04774678 12.83693442 -0.05350447 14.52078247 -0.05926514 C18.04966537 -0.06976231 21.57852557 -0.07561353 25.10742188 -0.07910156 C29.62224746 -0.08458688 34.13677157 -0.10862103 38.65150261 -0.13707352 C42.12941355 -0.15572448 45.60725217 -0.16090678 49.08520889 -0.16243744 C50.7493365 -0.1654584 52.413463 -0.17346813 54.07754135 -0.18662262 C56.40869673 -0.20373666 58.73911926 -0.20179025 61.0703125 -0.1953125 C61.75311279 -0.20452728 62.43591309 -0.21374207 63.1394043 -0.22323608 C67.7014033 -0.18365863 70.78546386 0.78145818 74.66455078 3.16113281 C79.56538173 8.59178332 79.80655049 12.16588386 79.77807617 19.29248047 C79.7782222 20.23886887 79.77836823 21.18525726 79.77851868 22.1603241 C79.7778202 25.29863756 79.7700308 28.43689218 79.76220703 31.57519531 C79.76034262 33.7471005 79.75891883 35.91900611 79.75791931 38.09091187 C79.75409594 43.81527868 79.74426717 49.53962024 79.73321533 55.26397705 C79.72299735 61.102088 79.71842086 66.94020301 79.71337891 72.77832031 C79.70264476 84.23926893 79.68557049 95.70019877 79.66455078 107.16113281 C78.40505118 106.21847723 77.14582833 105.27545186 75.88671875 104.33227539 C75.18545868 103.80716873 74.48419861 103.28206207 73.76168823 102.74104309 C70.16942921 100.03476032 66.6198371 97.27334432 63.07080078 94.51074219 C60.0074044 92.12077948 60.0074044 92.12077948 56.66455078 90.16113281 C56.99455078 92.14113281 57.32455078 94.12113281 57.66455078 96.16113281 C48.9021477 96.25394574 40.13991467 96.32495468 31.37712669 96.3683815 C27.30788139 96.38922771 23.23897319 96.41749034 19.16992188 96.46289062 C15.2406446 96.50645541 11.31169091 96.53029223 7.3821907 96.54064178 C5.8854933 96.54801419 4.38881296 96.56241101 2.89225388 96.58405304 C0.79041476 96.61323039 -1.31009928 96.61708314 -3.41210938 96.61523438 C-4.6067984 96.62411682 -5.80148743 96.63299927 -7.03237915 96.64215088 C-11.16893099 96.03975489 -13.19143867 94.91063132 -16.33544922 92.16113281 C-19.07520444 87.29304701 -19.71314689 83.31275956 -19.72363281 77.77636719 C-19.72888977 77.0745784 -19.73414673 76.37278961 -19.73956299 75.6497345 C-19.75266729 73.35121796 -19.74405957 71.05340526 -19.73388672 68.75488281 C-19.73591022 67.1449775 -19.73882395 65.53507309 -19.74258423 63.9251709 C-19.74699461 60.55956247 -19.74061823 57.19419374 -19.7265625 53.82861328 C-19.70947123 49.52802192 -19.71931935 45.22799235 -19.73727989 40.92742157 C-19.74815267 37.60556859 -19.74465543 34.28384744 -19.73689651 30.96199036 C-19.73490415 29.3768558 -19.73731971 27.79170903 -19.74433517 26.20658875 C-19.75200765 23.986039 -19.74026601 21.76638217 -19.72363281 19.54589844 C-19.72124603 18.28571899 -19.71885925 17.02553955 -19.71640015 15.72717285 C-19.15572933 10.47879457 -17.76042472 6.54957048 -13.89794922 2.78613281 C-9.40933982 -0.06030241 -5.20588101 0.00847267 0 0 Z " fill="#8B9DFE" transform="translate(19.33544921875,-0.1611328125)"/>
<path d="M0 0 C-1 3 -1 3 -3.28515625 4.16796875 C-4.20167969 4.50441406 -5.11820313 4.84085938 -6.0625 5.1875 C-7.44115234 5.70376953 -7.44115234 5.70376953 -8.84765625 6.23046875 C-9.55792969 6.48441406 -10.26820312 6.73835938 -11 7 C-0.77496252 2.05311362 10.95110132 1.33526561 22 4 C19.525 3.01 19.525 3.01 17 2 C17.33 1.34 17.66 0.68 18 0 C23.76666695 0.44358977 28.57607253 2.29753741 33 6 C38.27159313 13.42815396 40.57531304 22.10995336 42 31 C42.15082031 31.86109375 42.30164063 32.7221875 42.45703125 33.609375 C42.69638589 36.02726251 42.73801768 37.68318499 42 40 C37.577344 44.9567932 31.86473188 47.75722611 25.3125 48.3125 C24.219375 48.209375 23.12625 48.10625 22 48 C21.34 47.01 20.68 46.02 20 45 C23.3 43.02 26.6 41.04 30 39 C28.948125 39.474375 27.89625 39.94875 26.8125 40.4375 C15.43537936 45.56835833 0.42292792 43.91643243 -11 40 C-8.36 41.65 -5.72 43.3 -3 45 C-3.33 45.99 -3.66 46.98 -4 48 C-10.45506926 48.46107638 -14.52168663 47.44120945 -20 44 C-21.08861328 43.38125 -21.08861328 43.38125 -22.19921875 42.75 C-24 41 -24 41 -24.56640625 38.20703125 C-24.55309666 26.64099772 -22.42404122 14.26669893 -15 5 C-12.34375 3.3203125 -12.34375 3.3203125 -9.5 2.125 C-8.5615625 1.71507813 -7.623125 1.30515625 -6.65625 0.8828125 C-4 0 -4 0 0 0 Z " fill="#FAFBFF" transform="translate(41,24)"/>
<path d="M0 0 C1.52491998 3.04983996 1.23562548 5.6423369 1 9 C-0.1875 11 -0.1875 11 -2 12 C-5.34192692 11.75546876 -6.60543557 11.39456443 -9 9 C-9.54782609 2.97391304 -9.54782609 2.97391304 -7.875 0 C-5.01598528 -1.52480785 -3.03270286 -0.8570682 0 0 Z " fill="#8E9FFE" transform="translate(63,47)"/>
<path d="M0 0 C2 2 2 2 2.3125 5.9375 C2.23660758 8.54630189 2.13100187 9.77247043 0.8125 12.0625 C-1 13 -1 13 -3.5625 12.9375 C-6 12 -6 12 -7.3125 10.25 C-8.11471142 7.6245808 -8.34990885 5.72928905 -8 3 C-5.84871852 -0.2835349 -3.77529378 -0.48401202 0 0 Z " fill="#8FA0FE" transform="translate(43,46)"/>
</svg>
