<?xml version="1.0" encoding="UTF-8"?>
<svg version="1.1" xmlns="http://www.w3.org/2000/svg" width="63" height="70">
<path d="M0 0 C4.29 0 8.58 0 13 0 C13 16.5 13 33 13 50 C0.79 50.33 -11.42 50.66 -24 51 C-20.7 54.3 -17.4 57.6 -14 61 C-19.75 67.75 -19.75 67.75 -22 70 C-26.27646979 69.88027536 -28.83501328 66.6326092 -31.67578125 63.79296875 C-32.20519821 63.27116531 -32.73461517 62.74936188 -33.28007507 62.21174622 C-34.39410394 61.10850389 -35.50420164 60.00127965 -36.6105957 58.89038086 C-38.31016027 57.18984107 -40.02994497 55.51175655 -41.75195312 53.83398438 C-42.83202715 52.75911519 -43.91084787 51.68298486 -44.98828125 50.60546875 C-45.50586502 50.10428024 -46.02344879 49.60309174 -46.55671692 49.0867157 C-49.94909399 45.62683808 -49.94909399 45.62683808 -50.16113281 43.01586914 C-48.3884061 39.93819789 -45.96001864 37.59483277 -43.43359375 35.140625 C-42.88010757 34.59138367 -42.3266214 34.04214233 -41.75636292 33.47625732 C-39.99033441 31.72699536 -38.21415308 29.98846356 -36.4375 28.25 C-35.23694559 27.064495 -34.0370674 25.87830476 -32.83789062 24.69140625 C-29.89970905 21.78626707 -26.95237926 18.89070663 -24 16 C-22.8944811 16.93590504 -21.79064547 17.87379858 -20.6875 18.8125 C-20.07261719 19.33457031 -19.45773438 19.85664063 -18.82421875 20.39453125 C-17.14575321 21.87172469 -15.56117966 23.40039131 -14 25 C-16 29 -16 29 -23 36 C-15.41 36.33 -7.82 36.66 0 37 C0 24.79 0 12.58 0 0 Z " fill="#FFFFFF" transform="translate(50,0)"/>
</svg>
