<?xml version="1.0" encoding="UTF-8"?>
<svg version="1.1" xmlns="http://www.w3.org/2000/svg" width="1931" height="1931">
<path d="M0 0 C637.23 0 1274.46 0 1931 0 C1931 637.23 1931 1274.46 1931 1931 C1293.77 1931 656.54 1931 0 1931 C0 1293.77 0 656.54 0 0 Z " fill="#3C5A99" transform="translate(0,0)"/>
<path d="M0 0 C2.75487602 0.00785014 5.50974114 0.01236317 8.26462555 0.01613998 C38.50630837 0.06428615 68.68730803 0.59910717 98.89627838 2.09630966 C102.24291137 2.26203109 105.58977404 2.42242567 108.93668365 2.58245468 C135.9248927 3.88923802 162.83853148 5.69891482 189.73453522 8.2929039 C190.44078033 8.3605545 191.14702545 8.42820511 191.87467194 8.49790573 C199.98414952 9.3006838 208.05931977 10.30514877 216.15641022 11.25774765 C216.15641022 97.38774765 216.15641022 183.51774765 216.15641022 272.25774765 C128.65641022 272.57024765 128.65641022 272.57024765 101.15836334 272.6456871 C92.93319543 272.68230601 92.93319543 272.68230601 84.70804596 272.72275925 C81.08075441 272.74049752 77.45354156 272.75025829 73.82621002 272.75486374 C41.10648472 272.80284622 8.48376214 273.47258769 -21.84358978 287.25774765 C-22.88773041 287.71923203 -23.93187103 288.1807164 -25.00765228 288.65618515 C-47.7669904 299.30073347 -63.2949216 318.09415523 -72.12093353 341.19036484 C-74.1816663 347.08573141 -75.49392505 353.16826506 -76.84358978 359.25774765 C-77.18676094 360.61272445 -77.53316328 361.96688665 -77.88265228 363.32024765 C-82.33062198 380.98388126 -81.99308093 399.61853826 -82.04891205 417.70891953 C-82.05865111 419.74336817 -82.06879777 421.7778149 -82.07931423 423.81225967 C-82.10612335 429.2126559 -82.12742513 434.61306008 -82.14750671 440.01348495 C-82.16727525 445.0991541 -82.19211651 450.18479383 -82.21651459 455.27044296 C-82.28474915 470.09952218 -82.34493811 484.92863753 -82.40608978 499.75774765 C-82.55046478 532.92274765 -82.69483978 566.08774765 -82.84358978 600.25774765 C12.52641022 600.25774765 107.89641022 600.25774765 206.15641022 600.25774765 C204.91508034 610.80905161 203.65462777 621.34916426 202.28141022 631.88274765 C202.10812678 633.21802031 201.93495258 634.55330715 201.76187897 635.88860703 C201.40454778 638.64484614 201.04676131 641.40102557 200.68863678 644.15716171 C199.84017507 650.69012361 198.99875233 657.22399447 198.15641022 663.75774765 C197.8231079 666.34108499 197.48977451 668.92441831 197.15641022 671.50774765 C196.99141022 672.78649765 196.82641022 674.06524765 196.65641022 675.38274765 C179.15641022 811.00774764 179.15641022 811.00774764 178.65616608 814.88396835 C178.32341924 817.46320336 177.99089913 820.04246763 177.65860748 822.62176132 C176.90360008 828.48018967 176.14699898 834.33838285 175.38111115 840.19540024 C175.12005959 842.19266689 174.85980609 844.1900361 174.59976959 846.18743515 C174.28099435 848.6342505 173.96087074 851.08089092 173.63883209 853.5272789 C172.00527572 866.09093993 170.60922033 878.66672668 169.15641022 891.25774765 C85.99641022 891.25774765 2.83641022 891.25774765 -82.84358978 891.25774765 C-82.84358978 1138.09774765 -82.84358978 1384.93774765 -82.84358978 1639.25774765 C-182.17358978 1639.25774765 -281.50358978 1639.25774765 -383.84358978 1639.25774765 C-383.84358978 1392.41774765 -383.84358978 1145.57774765 -383.84358978 891.25774765 C-466.67358978 891.25774765 -549.50358978 891.25774765 -634.84358978 891.25774765 C-634.84358978 795.22774765 -634.84358978 699.19774765 -634.84358978 600.25774765 C-551.68358978 600.25774765 -468.52358978 600.25774765 -382.84358978 600.25774765 C-382.88314387 520.1996388 -382.88314387 520.1996388 -382.93367767 440.14153671 C-382.93819427 424.61663437 -382.93819427 424.61663437 -382.93903351 417.3362999 C-382.93996077 412.27884096 -382.94369073 407.22139264 -382.94916534 402.16393661 C-382.95607718 395.69200104 -382.95807124 389.22008069 -382.95666206 382.74814177 C-382.95695628 380.3859675 -382.95890771 378.02379264 -382.96280491 375.66162157 C-382.99119514 357.59947882 -382.78424472 339.57113272 -380.46858978 321.63274765 C-380.33557465 320.57410507 -380.20255951 319.51546249 -380.06551361 318.42473984 C-378.89735242 309.31956849 -377.5454012 300.27819482 -375.84358978 291.25774765 C-375.65458099 290.23826035 -375.4655722 289.21877304 -375.27083588 288.16839218 C-365.57954682 236.59342587 -347.35946263 186.31032884 -316.84358978 143.25774765 C-316.30443939 142.49687851 -315.765289 141.73600937 -315.20980072 140.95208359 C-308.95327028 132.18036503 -302.66275266 123.59021386 -295.22249603 115.7772789 C-293.26884748 113.70814374 -291.40159845 111.60593588 -289.54280853 109.45306015 C-280.23717007 98.77075186 -270.01417273 88.96149353 -258.84358978 80.25774765 C-257.71618144 79.33228835 -256.59133512 78.40370223 -255.46858978 77.4725914 C-226.28138902 53.40209124 -192.31701511 36.00236888 -156.84358978 23.25774765 C-155.62711761 22.81374619 -155.62711761 22.81374619 -154.38607025 22.36077499 C-104.80612819 4.3819501 -52.30924713 -0.15987832 0 0 Z " fill="#FEFEFE" transform="translate(1414.8435897827148,291.7422523498535)"/>
<path d="M0 0 C31.35 0 62.7 0 95 0 C95 0.33 95 0.66 95 1 C93.75347656 1.20753906 92.50695312 1.41507812 91.22265625 1.62890625 C62.74395052 6.66333358 37.59893968 20.23563161 20.375 44.125 C10.03340602 59.71047643 3.36335845 76.37532448 1 95 C0.67 95 0.34 95 0 95 C0 63.65 0 32.3 0 0 Z " fill="#000000" transform="translate(0,0)"/>
<path d="M0 0 C0.33 0 0.66 0 1 0 C1.21914063 1.26972656 1.43828125 2.53945312 1.6640625 3.84765625 C6.81575855 32.32647655 20.45124352 58.10564572 44.49804688 75.11035156 C59.26149973 85.05763119 75.37606096 91.31579285 93 94 C93 94.33 93 94.66 93 95 C62.31 95 31.62 95 0 95 C0 63.65 0 32.3 0 0 Z " fill="#000000" transform="translate(0,1836)"/>
<path d="M0 0 C31.35 0 62.7 0 95 0 C95 31.02 95 62.04 95 94 C94.67 94 94.34 94 94 94 C93.85304688 93.030625 93.70609375 92.06125 93.5546875 91.0625 C90.09710822 69.80548473 81.48571386 48.95093556 65.734375 33.82421875 C64 32 64 32 64 30 C63.41089844 29.73445313 62.82179688 29.46890625 62.21484375 29.1953125 C59.94187646 27.96863174 58.42206649 26.6558766 56.5625 24.875 C40.93767014 11.00544568 20.45075558 3.68465517 0 1 C0 0.67 0 0.34 0 0 Z " fill="#000000" transform="translate(1836,0)"/>
<path d="M0 0 C0.33 0 0.66 0 1 0 C1 30.69 1 61.38 1 93 C-29.69 93 -60.38 93 -92 93 C-92 92.67 -92 92.34 -92 92 C-90.27716797 91.65388672 -90.27716797 91.65388672 -88.51953125 91.30078125 C-68.9134524 87.24011245 -51.20440662 80.27670506 -36 67 C-35.34 66.48308594 -34.68 65.96617188 -34 65.43359375 C-14.53485782 49.77514268 -3.43957333 24.23102408 0 0 Z " fill="#000000" transform="translate(1930,1838)"/>
</svg>
