<?xml version="1.0" encoding="UTF-8"?>
<svg version="1.1" xmlns="http://www.w3.org/2000/svg" width="128" height="128">
<path d="M0 0 C12.47480762 10.65918052 22.07148587 25.74498814 23.5625 42.3828125 C24.62493961 60.75335926 20.78472608 78.13457189 8.58081055 92.41723633 C-3.15172371 105.28458027 -18.65025346 113.58544283 -36.15234375 114.59765625 C-53.90772811 115.18563973 -70.71730487 110.11906687 -84 98.0078125 C-96.6213358 85.86974951 -104.13833393 70.18956458 -104.71923828 52.64794922 C-104.98304705 34.83038878 -99.06588599 18.26179451 -86.63989258 5.34106445 C-63.29256766 -17.71826879 -25.92641913 -20.6714732 0 0 Z M-79.625 13.4765625 C-89.65447678 23.96192459 -94.26791538 37.01899514 -94.4375 51.3828125 C-93.44115227 67.74874652 -87.57734 79.5718423 -75.83203125 90.89453125 C-64.26390089 100.99369268 -50.89877268 104.8653924 -35.7265625 104.2265625 C-19.6326308 102.37913546 -8.11877585 95.16204666 2.4375 83.0703125 C11.65551383 71.16439839 14.69958435 56.93880695 13 42.1328125 C10.14390297 26.40642824 1.9828075 15.04332412 -10.5703125 5.32421875 C-32.99960129 -9.86291548 -60.83916097 -4.50416915 -79.625 13.4765625 Z " fill="#FFFFFF" transform="translate(104.4375,13.6171875)"/>
<path d="M0 0 C8.25 0 16.5 0 25 0 C25 15.84 25 31.68 25 48 C26.98 48 28.96 48 31 48 C31 51.3 31 54.6 31 58 C20.77 58 10.54 58 0 58 C0 54.7 0 51.4 0 48 C2.31 48 4.62 48 7 48 C7 35.79 7 23.58 7 11 C4.69 11 2.38 11 0 11 C0 7.37 0 3.74 0 0 Z " fill="#FFFFFF" transform="translate(48,48)"/>
<path d="M0 0 C2.4375 1.5625 2.4375 1.5625 4 4 C4.70476018 8.93332128 4.77041398 10.84437903 2 15 C-1.32887629 17.21925086 -3.13936508 17.75890933 -7.0625 17.4765625 C-10.61497432 16.60276841 -12.01078114 14.9838283 -14 12 C-14.67639058 8.97719254 -14.45558841 7.18911887 -14 4 C-10.07109934 -1.28369399 -6.16590107 -1.40625814 0 0 Z " fill="#FFFFFF" transform="translate(69,24)"/>
</svg>
