<?xml version="1.0" encoding="UTF-8"?>
<svg version="1.1" xmlns="http://www.w3.org/2000/svg" width="1200" height="1200">
<path d="M0 0 C1.53845984 -0.00165106 3.07691927 -0.00373798 4.61537799 -0.0062201 C8.84980687 -0.01177826 13.0842155 -0.01111589 17.31864686 -0.00944251 C21.92302421 -0.00871092 26.52739587 -0.01373553 31.13177079 -0.01801753 C40.26716302 -0.02559594 49.4025494 -0.02779051 58.53794445 -0.02834659 C69.47927519 -0.02926039 80.42060053 -0.03592844 91.36192894 -0.04269341 C117.80790311 -0.05875448 144.2538767 -0.0646569 170.69985487 -0.06944216 C183.21120009 -0.07177808 195.72254485 -0.07538074 208.23388971 -0.07913754 C250.39209408 -0.09177224 292.55029842 -0.10258546 334.70850465 -0.10597799 C336.72315907 -0.10614023 338.73781348 -0.10630579 340.7524679 -0.10647238 C344.79280849 -0.10680617 348.83314908 -0.10713665 352.87348968 -0.10746694 C357.60362609 -0.10785383 362.3337625 -0.10824344 367.06389891 -0.108638 C368.41769632 -0.10875042 369.77149372 -0.10886184 371.12529112 -0.10897225 C414.59207 -0.11252066 458.05883233 -0.12759481 501.52560489 -0.15091 C548.15742931 -0.17591276 594.78924628 -0.19029551 641.42107838 -0.19150805 C646.46674931 -0.19167951 651.51242024 -0.19189494 656.55809116 -0.19214249 C657.80047356 -0.19219826 659.04285595 -0.19225402 660.32288629 -0.19231148 C680.31011419 -0.19346178 700.29732496 -0.20448199 720.28454708 -0.21902954 C740.37818688 -0.23340154 760.47180474 -0.23662755 780.56544826 -0.22858956 C792.49917146 -0.22413657 804.4328238 -0.22798074 816.36653767 -0.24382807 C824.34518877 -0.25359223 832.32379033 -0.25238609 840.302441 -0.24239184 C844.84379777 -0.23701019 849.38501869 -0.2362561 853.9263641 -0.24890056 C888.53987012 -0.33929494 888.53987012 -0.33929494 904.01305676 3.13142776 C905.07967535 3.36837821 906.14629394 3.60532865 907.24523431 3.84945941 C909.71860812 4.42964309 912.1413613 5.09290847 914.57555676 5.81892776 C915.44285412 6.07383987 916.31015148 6.32875198 917.20373058 6.5913887 C943.65200619 14.66845034 966.13613705 29.1783649 986.01305676 48.13142776 C987.20028332 49.23937698 987.20028332 49.23937698 988.41149426 50.36970901 C1015.00025248 75.88558752 1034.0060844 116.2751629 1035.10690346 153.28672693 C1035.14406946 157.23077652 1035.14964319 161.17421351 1035.14448452 165.11837101 C1035.14613558 166.65683085 1035.1482225 168.19529028 1035.15070462 169.733749 C1035.15626278 173.96817788 1035.15560041 178.20258651 1035.15392703 182.43701787 C1035.15319544 187.04139522 1035.15822005 191.64576688 1035.16250205 196.2501418 C1035.17008046 205.38553403 1035.17227503 214.52092041 1035.17283111 223.65631546 C1035.17374491 234.5976462 1035.18041296 245.53897154 1035.18717793 256.48029995 C1035.203239 282.92627412 1035.20914142 309.37224771 1035.21392668 335.81822588 C1035.2162626 348.3295711 1035.21986526 360.84091586 1035.22362206 373.35226072 C1035.23625676 415.51046509 1035.24706998 457.66866943 1035.25046251 499.82687566 C1035.25062475 501.84153008 1035.25079031 503.85618449 1035.2509569 505.87083891 C1035.25129069 509.9111795 1035.25162117 513.95152009 1035.25195146 517.99186069 C1035.25233835 522.7219971 1035.25272796 527.45213351 1035.25312252 532.18226992 C1035.25323494 533.53606733 1035.25334636 534.88986473 1035.25345677 536.24366213 C1035.25700518 579.71044101 1035.27207933 623.17720334 1035.29539452 666.6439759 C1035.32039728 713.27580032 1035.33478003 759.90761729 1035.33599257 806.53944939 C1035.33616403 811.58512032 1035.33637946 816.63079125 1035.33662701 821.67646217 C1035.33668278 822.91884457 1035.33673854 824.16122696 1035.336796 825.4412573 C1035.3379463 845.4284852 1035.34896651 865.41569597 1035.36351406 885.40291809 C1035.37788606 905.49655789 1035.38111207 925.59017575 1035.37307408 945.68381927 C1035.36862109 957.61754247 1035.37246526 969.55119481 1035.38831259 981.48490868 C1035.39807675 989.46355978 1035.39687061 997.44216134 1035.38687636 1005.42081201 C1035.38149471 1009.96216878 1035.38074062 1014.5033897 1035.39338508 1019.04473511 C1035.48377946 1053.65824113 1035.48377946 1053.65824113 1032.01305676 1069.13142776 C1031.77611135 1070.19803629 1031.53916594 1071.26464481 1031.29504037 1072.3635748 C1030.71485018 1074.83694333 1030.05148057 1077.25970893 1029.32555676 1079.69392776 C1029.07136974 1080.55977493 1028.81718273 1081.4256221 1028.55529308 1082.31770706 C1020.80783657 1107.70738122 1006.81553687 1130.69934133 988.39879894 1149.69881058 C987.15555057 1150.98411386 985.93070572 1152.28715853 984.70836926 1153.59236526 C959.252351 1180.16732938 918.80095612 1199.12648878 881.85775759 1200.22527447 C877.913708 1200.26244047 873.97027101 1200.2680142 870.02611351 1200.26285553 C868.48765367 1200.26450659 866.94919424 1200.26659351 865.41073552 1200.26907563 C861.17630664 1200.27463379 856.94189801 1200.27397142 852.70746665 1200.27229804 C848.1030893 1200.27156645 843.49871764 1200.27659106 838.89434272 1200.28087306 C829.75895049 1200.28845147 820.62356411 1200.29064604 811.48816906 1200.29120212 C800.54683832 1200.29211592 789.60551298 1200.29878397 778.66418457 1200.30554894 C752.2182104 1200.32161001 725.77223681 1200.32751243 699.32625864 1200.33229769 C686.81491342 1200.33463361 674.30356866 1200.33823627 661.7922238 1200.34199307 C619.63401943 1200.35462777 577.47581509 1200.36544099 535.31760886 1200.36883352 C533.30295444 1200.36899576 531.28830003 1200.36916132 529.27364561 1200.36932791 C525.23330502 1200.3696617 521.19296443 1200.36999218 517.15262383 1200.37032247 C512.42248742 1200.37070936 507.69235101 1200.37109897 502.9622146 1200.37149353 C501.60841719 1200.37160595 500.25461979 1200.37171737 498.90082239 1200.37182778 C455.43404351 1200.37537619 411.96728118 1200.39045034 368.50050862 1200.41376553 C321.8686842 1200.43876829 275.23686723 1200.45315104 228.60503513 1200.45436358 C223.5593642 1200.45453504 218.51369327 1200.45475047 213.46802235 1200.45499802 C212.22563995 1200.45505379 210.98325756 1200.45510955 209.70322722 1200.45516701 C189.71599932 1200.45631731 169.72878855 1200.46733752 149.74156643 1200.48188507 C129.64792663 1200.49625707 109.55430877 1200.49948308 89.46066525 1200.49144509 C77.52694205 1200.4869921 65.59328971 1200.49083627 53.65957584 1200.5066836 C45.68092474 1200.51644776 37.70232318 1200.51524162 29.72367251 1200.50524737 C25.18231574 1200.49986572 20.64109482 1200.49911163 16.09974941 1200.51175609 C-18.51375661 1200.60215047 -18.51375661 1200.60215047 -33.98694324 1197.13142776 C-35.05356184 1196.89447732 -36.12018043 1196.65752688 -37.2191208 1196.41339612 C-39.69249461 1195.83321244 -42.11524779 1195.16994706 -44.54944324 1194.44392776 C-45.85038929 1194.0615596 -45.85038929 1194.0615596 -47.17761707 1193.67146683 C-73.62589268 1185.59440519 -96.11002354 1171.08449063 -115.98694324 1152.13142776 C-116.77842762 1151.39279495 -117.56991199 1150.65416214 -118.38538074 1149.89314651 C-144.97413897 1124.37726801 -163.97997089 1083.98769263 -165.08078995 1046.9761286 C-165.11795595 1043.03207901 -165.12352968 1039.08864202 -165.11837101 1035.14448452 C-165.12002207 1033.60602468 -165.12210899 1032.06756525 -165.12459111 1030.52910653 C-165.13014927 1026.29467765 -165.1294869 1022.06026902 -165.12781352 1017.82583766 C-165.12708193 1013.22146031 -165.13210654 1008.61708865 -165.13638854 1004.01271373 C-165.14396695 994.8773215 -165.14616152 985.74193512 -165.1467176 976.60654007 C-165.1476314 965.66520933 -165.15429945 954.72388399 -165.16106442 943.78255558 C-165.17712549 917.33658141 -165.18302791 890.89060782 -165.18781317 864.44462965 C-165.19014909 851.93328443 -165.19375175 839.42193967 -165.19750855 826.91059481 C-165.21014325 784.75239044 -165.22095647 742.5941861 -165.224349 700.43597987 C-165.22451124 698.42132545 -165.2246768 696.40667104 -165.22484339 694.39201662 C-165.22517718 690.35167603 -165.22550766 686.31133544 -165.22583795 682.27099484 C-165.22622484 677.54085843 -165.22661445 672.81072202 -165.22700901 668.08058561 C-165.22712143 666.7267882 -165.22723285 665.3729908 -165.22734326 664.0191934 C-165.23089167 620.55241452 -165.24596582 577.08565219 -165.26928101 533.61887963 C-165.29428377 486.98705521 -165.30866652 440.35523824 -165.30987906 393.72340614 C-165.31005052 388.67773521 -165.31026595 383.63206428 -165.3105135 378.58639336 C-165.31056927 377.34401096 -165.31062503 376.10162857 -165.31068249 374.82159823 C-165.31183279 354.83437033 -165.322853 334.84715956 -165.33740055 314.85993744 C-165.35177255 294.76629764 -165.35499856 274.67267978 -165.34696057 254.57903626 C-165.34250758 242.64531306 -165.34635175 230.71166072 -165.36219908 218.77794685 C-165.37196324 210.79929575 -165.3707571 202.82069419 -165.36076285 194.84204352 C-165.3553812 190.30068675 -165.35462711 185.75946583 -165.36727157 181.21812042 C-165.45766595 146.6046144 -165.45766595 146.6046144 -161.98694324 131.13142776 C-161.75000791 130.06483435 -161.51307257 128.99824093 -161.26895738 127.8993265 C-160.68875313 125.42597875 -160.02510351 123.00320428 -159.29944324 120.56892776 C-159.04670643 119.70525589 -158.79396961 118.84158401 -158.5335741 117.95174026 C-155.80246665 108.98103325 -152.11558941 100.53669277 -147.98694324 92.13142776 C-147.44424793 91.0060762 -146.90155262 89.88072464 -146.34241199 88.72127151 C-138.77674028 73.86604748 -128.60161344 60.98942205 -116.98694324 49.13142776 C-116.22897449 48.32318558 -115.47100574 47.51494339 -114.69006824 46.68220901 C-85.41233657 16.0688144 -41.77221362 -0.05463498 0 0 Z " fill="#03A9F4" transform="translate(164.98694324493408,-0.13142776489257813)"/>
<path d="M0 0 C1.20269531 0.00064453 2.40539062 0.00128906 3.64453125 0.00195312 C17.30085016 0.06796111 30.19357307 1.20390914 43.5 4.1875 C44.2115625 4.3412207 44.923125 4.49494141 45.65625 4.65332031 C54.23521618 6.50731344 62.50377124 8.48594905 70.5 12.1875 C71.52480469 12.64600342 71.52480469 12.64600342 72.5703125 13.11376953 C104.73375122 27.52143031 104.73375122 27.52143031 113.1953125 39.609375 C115.17557199 42.35410676 116.41554468 43.73969444 119.5 45.1875 C126.2921418 45.35201555 133.04378729 43.05965173 139.5 41.1875 C140.39025879 40.93500488 141.28051758 40.68250977 142.19775391 40.42236328 C147.28365312 38.96805138 152.33596903 37.42169601 157.38232422 35.83642578 C160.11057232 35.00040048 162.86186804 34.27368586 165.625 33.5625 C169.81247708 32.44756802 173.71859875 30.9507861 177.71484375 29.28515625 C181.03952594 27.97486776 184.41649547 26.85720583 187.8125 25.75 C201.301129 21.31986124 214.08542357 15.72917422 226.8828125 9.6171875 C228.30207031 8.93982544 228.30207031 8.93982544 229.75 8.2487793 C231.64429472 7.34361656 233.53755207 6.43627916 235.4296875 5.52661133 C236.30109375 5.10919678 237.1725 4.69178223 238.0703125 4.26171875 C238.85164551 3.88619873 239.63297852 3.51067871 240.43798828 3.1237793 C242.5 2.1875 242.5 2.1875 245.5 1.1875 C243.00944116 16.6625454 230.49885788 30.4752674 220.03125 41.50390625 C217.88066547 43.78392411 215.83386276 46.10652274 213.8125 48.5 C210.98082285 51.76112582 207.92756221 54.57589794 204.6328125 57.36328125 C202.38299759 59.28757349 200.22974748 61.29585785 198.0625 63.3125 C182.98508611 76.90764893 165.93329893 88.82018934 148.5 99.1875 C174.0856214 95.15249161 199.03158938 89.69234486 223.02734375 79.63671875 C227.04888959 77.95843584 231.10775713 76.40501872 235.1875 74.875 C235.85990723 74.62024902 236.53231445 74.36549805 237.22509766 74.10302734 C240.2861416 72.95601547 243.30064949 71.87596783 246.5 71.1875 C235.43382822 88.81276035 224.03986399 106.34297831 210.5 122.1875 C209.79359375 123.01765625 209.0871875 123.8478125 208.359375 124.703125 C200.62471352 133.55068741 191.60539025 143.04653208 181.5 149.1875 C180.84 149.1875 180.18 149.1875 179.5 149.1875 C179.51665459 150.34425735 179.51665459 150.34425735 179.53364563 151.52438354 C180.54287309 225.07634185 180.54287309 225.07634185 174.5 260.1875 C174.17974854 262.09305664 174.17974854 262.09305664 173.85302734 264.03710938 C171.69274885 276.54130958 168.7621966 288.78232004 165.15478516 300.94335938 C164.46586794 303.30448057 163.81373413 305.67360527 163.16796875 308.046875 C158.34645571 325.63181231 153.13511739 343.57531316 145.06640625 359.9765625 C143.84678048 362.47664325 142.70093283 364.97520858 141.58984375 367.5234375 C123.1055241 409.86917701 98.18403698 448.66534387 67.5 483.1875 C67.05043945 483.69490723 66.60087891 484.20231445 66.13769531 484.72509766 C59.42952246 492.25175503 52.36427961 499.42089781 45.25 506.5625 C44.41017578 507.40699707 43.57035156 508.25149414 42.70507812 509.12158203 C37.79789503 514.01615774 32.78912677 518.70887982 27.5 523.1875 C26.86980957 523.72439453 26.23961914 524.26128906 25.59033203 524.81445312 C-29.27934901 571.25229342 -93.89035958 602.90168896 -163.5 620.1875 C-164.21800781 620.36829102 -164.93601562 620.54908203 -165.67578125 620.73535156 C-198.86527826 628.97114975 -233.77042986 633.28921304 -267.94921875 633.390625 C-269.40448025 633.39751659 -270.85974147 633.40446585 -272.31500244 633.41146851 C-276.93917088 633.43050188 -281.56329738 633.43512555 -286.1875 633.4375 C-287.36379911 633.43882557 -287.36379911 633.43882557 -288.56386185 633.44017792 C-311.6628121 633.46331401 -334.55705136 633.19403799 -357.5 630.1875 C-358.69407471 630.03716309 -359.88814941 629.88682617 -361.1184082 629.73193359 C-394.00800266 625.49490041 -427.08481563 619.46435784 -458.55078125 608.82373047 C-461.75589665 607.77757181 -465.00007606 606.89711442 -468.25 606 C-472.86312217 604.70555579 -477.11696753 603.13551443 -481.5 601.1875 C-483.37133519 600.57207578 -485.24683744 599.96926237 -487.125 599.375 C-492.6918454 597.55654362 -497.91758522 595.27093533 -503.19921875 592.75 C-505.69751252 591.56737573 -508.19994404 590.43356271 -510.73046875 589.32421875 C-522.9204657 583.92833176 -534.94271498 577.92440464 -546.375 571.0625 C-547.00486816 570.68456299 -547.63473633 570.30662598 -548.28369141 569.91723633 C-549.71009682 569.04056161 -551.10892378 568.11921772 -552.5 567.1875 C-552.5 566.8575 -552.5 566.5275 -552.5 566.1875 C-551.21053467 566.20844727 -549.92106934 566.22939453 -548.5925293 566.25097656 C-470.63634176 567.39776526 -389.20929714 557.7646261 -319.5 520.1875 C-318.77232422 519.80094238 -318.04464844 519.41438477 -317.29492188 519.01611328 C-307.23592377 513.65712465 -297.70416907 507.91987808 -288.5 501.1875 C-289.09087402 501.14786133 -289.68174805 501.10822266 -290.29052734 501.06738281 C-320.46600952 498.97194361 -349.39452496 493.81642773 -378.25 484.6875 C-379.37970215 484.33212158 -380.5094043 483.97674316 -381.67333984 483.6105957 C-389.58225225 481.03241389 -397.00387084 477.77805221 -404.5 474.1875 C-406.11929552 473.44916836 -407.74022091 472.7143933 -409.36328125 471.984375 C-425.00557828 464.83690045 -439.26921332 456.19635456 -452.5 445.1875 C-453.01014648 444.76388184 -453.52029297 444.34026367 -454.04589844 443.90380859 C-467.39103572 432.65310471 -480.50843708 417.64641498 -484.5 400.1875 C-483.2109375 400.16171875 -481.921875 400.1359375 -480.59375 400.109375 C-450.34527091 399.27193095 -421.30789064 395.54260634 -393.5 383.1875 C-398.4006385 381.49455215 -403.29771557 379.96439171 -408.29956055 378.59521484 C-418.50964481 375.75266769 -427.96787801 371.79425584 -437.5 367.1875 C-438.15742188 366.87441895 -438.81484375 366.56133789 -439.4921875 366.23876953 C-454.09350586 359.20257301 -466.80969949 349.36326264 -478.5 338.1875 C-479.2321875 337.51847656 -479.964375 336.84945313 -480.71875 336.16015625 C-505.93557728 312.31959948 -519.69262568 276.18958593 -520.68359375 241.890625 C-520.68676977 238.98138878 -520.64799296 236.09254695 -520.5 233.1875 C-519.51128906 233.68636719 -518.52257812 234.18523437 -517.50390625 234.69921875 C-472.30431199 257.14606732 -472.30431199 257.14606732 -423.5 265.1875 C-424.28761719 264.59324219 -425.07523437 263.99898437 -425.88671875 263.38671875 C-442.10150586 251.08098829 -458.52939902 237.96495084 -471.5 222.1875 C-472.30308594 221.27226563 -473.10617187 220.35703125 -473.93359375 219.4140625 C-505.02773012 183.88995335 -521.72812613 145.1666641 -519.37988281 97.76269531 C-519.05416156 93.50342309 -518.35411832 89.36958194 -517.5 85.1875 C-517.33870605 84.39327637 -517.17741211 83.59905273 -517.01123047 82.78076172 C-513.35677435 65.20083563 -507.24889443 49.84224764 -498.5 34.1875 C-494.75111602 35.43712799 -493.85380681 36.96646986 -491.4375 40.0625 C-487.42055409 45.09837853 -483.21165809 49.87937305 -478.84765625 54.62109375 C-476.79675902 56.86308956 -474.79522467 59.13541029 -472.8125 61.4375 C-470.08224376 64.58336901 -467.19681174 67.51177746 -464.2265625 70.4296875 C-462.52295112 72.16413348 -460.94855962 73.95988547 -459.375 75.8125 C-452.3101849 83.99365158 -444.49335828 91.65339234 -436.2578125 98.6484375 C-434.42072976 100.2569055 -432.71092213 101.94588868 -431 103.6875 C-427.33703374 107.39963359 -423.45765399 110.79430882 -419.5 114.1875 C-418.4566862 115.09465539 -417.41374621 116.00224081 -416.37109375 116.91015625 C-408.93187287 123.3664584 -401.35540298 129.59598729 -393.55078125 135.60498047 C-392.08930392 136.73275381 -390.63134237 137.86508945 -389.17578125 139.00048828 C-376.33257413 149.01849226 -363.21159029 158.39506128 -349.5 167.1875 C-348.64970215 167.7350293 -347.7994043 168.28255859 -346.92333984 168.84667969 C-329.0617718 180.29248389 -310.53283486 190.39229819 -291.4375 199.625 C-290.46393555 200.09687744 -289.49037109 200.56875488 -288.48730469 201.05493164 C-275.57181004 207.20034774 -262.24416286 212.16794436 -248.6875 216.6875 C-247.97789124 216.92428467 -247.26828247 217.16106934 -246.53717041 217.4050293 C-220.49923259 226.03860399 -194.60169812 230.45975734 -167.26953125 232.265625 C-165.92564505 232.35607293 -164.58177287 232.44672932 -163.23791504 232.53759766 C-159.99207443 232.75627095 -156.74610969 232.97286465 -153.5 233.1875 C-153.50888245 232.20318497 -153.51776489 231.21886993 -153.5269165 230.20472717 C-153.60893064 220.80896508 -153.66840194 211.41327799 -153.70724869 202.01723576 C-153.72789324 197.18963974 -153.75577246 192.36233852 -153.80175781 187.53491211 C-154.25142613 139.0265031 -147.57005449 92.25048428 -114.5 54.1875 C-113.78070312 53.35863281 -113.06140625 52.52976562 -112.3203125 51.67578125 C-110.08102189 49.14592524 -107.80178986 46.66053029 -105.5 44.1875 C-104.83742188 43.45917969 -104.17484375 42.73085938 -103.4921875 41.98046875 C-86.20289236 23.73796152 -63.48074679 11.89138289 -39.5 5.1875 C-38.65179687 4.93097656 -37.80359375 4.67445313 -36.9296875 4.41015625 C-24.75464122 0.8428322 -12.64131162 -0.12871646 0 0 Z " fill="#FDFDFE" transform="translate(753.5,299.8125)"/>
</svg>
